<?xml version="1.0" encoding="utf-8"?>
<!-- Generator: Adobe Illustrator 27.5.0, SVG Export Plug-In . SVG Version: 6.00 Build 0)  -->
<svg version="1.1" xmlns="http://www.w3.org/2000/svg" xmlns:xlink="http://www.w3.org/1999/xlink" x="0px" y="0px"
	 viewBox="0 0 750 500" style="enable-background:new 0 0 750 500;" xml:space="preserve">
<g id="BACKGROUND">
	<g>
<!--		<rect style="fill:#FFFFFF;" width="750" height="500"/>-->
		<linearGradient id="SVGID_1_" gradientUnits="userSpaceOnUse" x1="106.6263" y1="250" x2="601.9839" y2="250">
			<stop  offset="0" style="stop-color:#8AB9FD"/>
			<stop  offset="1" style="stop-color:#0056E9"/>
		</linearGradient>
		<path style="opacity:0.1;fill:url(#SVGID_1_);" d="M264.567,113.903c-13.625,13.198-23.834,30.339-40.164,39.99
			c-16.415,9.702-36.505,10.343-54.568,16.452c-31.486,10.647-56.134,39.362-61.888,72.097
			c-5.754,32.736,7.627,68.134,33.595,88.879c13.769,10.999,30.387,17.892,44.574,28.347c25.217,18.585,45.128,49.339,76.361,51.74
			c21.753,1.672,41.832-11.572,63.46-14.446c13.38-1.778,26.941,0.471,40.196,3.02c44.899,8.634,92.158,20.66,135.288,5.486
			c41.509-14.604,71.286-52.632,86.955-93.75c12.849-33.718,17.647-71.045,9.819-106.269c-7.828-35.225-29.007-68.031-60.001-86.508
			c-32.792-19.549-73.274-21.809-111.11-16.718c-14.947,2.011-30.978,5.064-45.896,1.292c-13.155-3.326-22.858-12.387-36.637-14.9
			C315.988,83.404,285.267,93.85,264.567,113.903z"/>
	</g>
</g>
<g id="OBJECTS">
	<g>

			<linearGradient id="SVGID_00000070810291017790030060000016078772726014490243_" gradientUnits="userSpaceOnUse" x1="649.4677" y1="455.9934" x2="643.5156" y2="437.7122">
			<stop  offset="0" style="stop-color:#53B0B1"/>
			<stop  offset="1" style="stop-color:#6ACAD8"/>
		</linearGradient>
		<path style="fill:url(#SVGID_00000070810291017790030060000016078772726014490243_);" d="M637.729,455.506
			c0,0,2.457-13.609,12.894-19.832c0,0,0,9.479-4.883,16.66c0,0,5.936-2.585,13.213-2.777c0,0-2.936,4.334-10.612,5.949"/>

			<linearGradient id="SVGID_00000026132808895994560830000003246931895620752265_" gradientUnits="userSpaceOnUse" x1="111.2791" y1="461.0548" x2="100.5557" y2="428.1187">
			<stop  offset="0" style="stop-color:#53B0B1"/>
			<stop  offset="1" style="stop-color:#6ACAD8"/>
		</linearGradient>
		<path style="fill:url(#SVGID_00000026132808895994560830000003246931895620752265_);" d="M105.644,455.506
			c0,0-15.511-7.006-24.319-19.69c0,0,15.702,3.018,28.915,10.869c0,0-9.574-12.475-10.149-17.918c0,0,9.383,6.033,14.17,16.386
			c0,0-0.191-13.979,5.745-21.447c0,0,8.043,11.898,4.404,31.8"/>

			<linearGradient id="SVGID_00000175311365794971634790000004319397233945652869_" gradientUnits="userSpaceOnUse" x1="320.1042" y1="451.0885" x2="320.1042" y2="354.407">
			<stop  offset="0" style="stop-color:#53B0B1"/>
			<stop  offset="1" style="stop-color:#6ACAD8"/>
		</linearGradient>
		<path style="fill:url(#SVGID_00000175311365794971634790000004319397233945652869_);" d="M278.75,455.506
			c0,0-47.724-37.472-50.788-75.328c0,0,29.936,2.166,70.06,44.735c0,0-27.506-38.739-27.991-74.888
			c0,0,30.227,17.438,44.983,68.228c0,0,6.162-44.909,18.63-60.675c0,0,8.531,13.085,4.599,65.17c0,0,25.926-49.404,51.211-60.234
			c0,0-8.248,42.648-26.078,69.826c0,0,21.077-3.997,48.871-2.124c0,0-9.729,13.021-48.871,25.289"/>
	</g>
	<g>
		<g>
			<g>

					<rect x="359.856" y="250.808" transform="matrix(0.9897 0.143 -0.143 0.9897 52.0611 -56.7182)" style="fill:#FFFFFF;" width="121.399" height="165.928"/>

					<linearGradient id="SVGID_00000064326152799332622720000015988335695662523028_" gradientUnits="userSpaceOnUse" x1="387.4719" y1="248.6386" x2="399.9825" y2="343.8723">
					<stop  offset="0" style="stop-color:#8AB9FD"/>
					<stop  offset="1" style="stop-color:#0056E9"/>
				</linearGradient>
				<polygon style="opacity:0.5;fill:url(#SVGID_00000064326152799332622720000015988335695662523028_);" points="437.812,324.263
					358.712,337.293 372.342,242.983 425.492,250.663 				"/>

					<rect x="359.856" y="250.808" transform="matrix(0.9897 0.143 -0.143 0.9897 52.0611 -56.7182)" style="fill:none;stroke:#242548;stroke-linecap:round;stroke-linejoin:round;stroke-miterlimit:10;" width="121.399" height="165.928"/>
				<g id="XMLID_00000028302414874242687020000004706128536567872420_">

						<linearGradient id="SVGID_00000047034897029836632460000009016860668700404880_" gradientUnits="userSpaceOnUse" x1="363.6562" y1="653.4996" x2="448.5933" y2="665.497" gradientTransform="matrix(0.9897 0.143 -0.143 0.9897 91.5756 -303.9694)">
						<stop  offset="0" style="stop-color:#8AB9FD"/>
						<stop  offset="1" style="stop-color:#0056E9"/>
					</linearGradient>
					<path style="fill:url(#SVGID_00000047034897029836632460000009016860668700404880_);" d="M376.385,394.673
						c-2.907-0.42-5.599,1.592-6.019,4.499c-0.42,2.907,1.592,5.599,4.499,6.02c2.898,0.419,5.591-1.594,6.011-4.501
						C381.296,397.784,379.284,395.092,376.385,394.673z M379.123,400.564c-0.181,0.379-0.484,0.676-0.83,0.887l-3.159,1.882
						l-2.506-2.701c-0.272-0.3-0.479-0.672-0.545-1.086c-0.284-1.705,1.448-3.235,3.094-2.305c0.448,0.263,0.702,0.929,0.702,0.929
						s0.424-0.568,0.928-0.693C378.65,397.051,379.878,399.009,379.123,400.564z"/>

						<linearGradient id="SVGID_00000167382995906650927830000006397806475006171292_" gradientUnits="userSpaceOnUse" x1="363.3447" y1="655.7047" x2="448.2809" y2="667.702" gradientTransform="matrix(0.9897 0.143 -0.143 0.9897 91.5756 -303.9694)">
						<stop  offset="0" style="stop-color:#8AB9FD"/>
						<stop  offset="1" style="stop-color:#0056E9"/>
					</linearGradient>
					<path style="fill:url(#SVGID_00000167382995906650927830000006397806475006171292_);" d="M364.364,403.672l-0.558-2.454
						c0.684-0.756,1.158-1.717,1.315-2.803c0.42-2.907-1.592-5.599-4.499-6.02c-2.899-0.419-5.6,1.592-6.02,4.499
						c-0.42,2.907,1.601,5.601,4.5,6.02c1.088,0.157,2.147-0.027,3.067-0.47L364.364,403.672z M362.616,397.27
						c0.423,0.061,0.717,0.454,0.656,0.877c-0.061,0.423-0.454,0.717-0.877,0.656c-0.423-0.061-0.717-0.454-0.656-0.877
						C361.8,397.503,362.193,397.209,362.616,397.27z M357.117,398.04c-0.423-0.061-0.717-0.454-0.656-0.877
						c0.061-0.423,0.454-0.717,0.877-0.656c0.423,0.061,0.717,0.454,0.656,0.877C357.934,397.808,357.54,398.102,357.117,398.04z
						 M359.751,398.421c-0.423-0.061-0.717-0.454-0.656-0.877c0.061-0.423,0.454-0.717,0.877-0.656
						c0.423,0.061,0.717,0.454,0.656,0.877C360.568,398.188,360.174,398.482,359.751,398.421z"/>

						<linearGradient id="SVGID_00000107575760999519466910000005949522355214031030_" gradientUnits="userSpaceOnUse" x1="363.9674" y1="651.2958" x2="448.9045" y2="663.2932" gradientTransform="matrix(0.9897 0.143 -0.143 0.9897 91.5756 -303.9694)">
						<stop  offset="0" style="stop-color:#8AB9FD"/>
						<stop  offset="1" style="stop-color:#0056E9"/>
					</linearGradient>
					<path style="fill:url(#SVGID_00000107575760999519466910000005949522355214031030_);" d="M392.135,396.949
						c-2.898-0.419-5.599,1.592-6.02,4.499c-0.42,2.907,1.601,5.601,4.5,6.02c2.907,0.42,5.599-1.592,6.02-4.499
						C397.055,400.061,395.042,397.369,392.135,396.949z M394.943,402.661c-0.041,0.282-0.245,0.513-0.501,0.602
						c0.03,0.103,0.041,0.213,0.025,0.327c-0.041,0.282-0.236,0.514-0.499,0.593c0.038,0.113,0.049,0.223,0.032,0.337
						c-0.059,0.405-0.442,0.692-0.847,0.633l-3.753-0.542l-0.029,0.203c-0.013,0.088-0.093,0.148-0.181,0.136l-1.639-0.237
						c-0.088-0.013-0.148-0.093-0.136-0.182l0.605-4.185c0.013-0.088,0.094-0.148,0.182-0.136l1.639,0.237
						c0.088,0.013,0.148,0.093,0.136,0.181l-0.056,0.388c0.168-0.039,0.335-0.078,0.393-0.105c0.528-0.293,0.882-1.123,1.156-1.902
						c0.015-0.043,0.033-0.103,0.042-0.165c0.076-0.277,0.19-0.692,0.55-0.757c0.185-0.036,0.427,0.035,0.613,0.178
						c0.235,0.178,0.377,0.441,0.413,0.752c0.03,0.355-0.034,1.11-0.204,1.598l1.568,0.227c0.405,0.059,0.692,0.442,0.633,0.847
						c-0.025,0.176-0.121,0.342-0.255,0.458C394.923,402.299,394.969,402.485,394.943,402.661z"/>
				</g>
				<g>
					<g>
						<path style="fill:#FFFFFF;" d="M485.062,271.409c0.07-0.486,0.521-0.822,1.006-0.752c0.485,0.07,0.822,0.521,0.752,1.006
							c-0.07,0.485-0.521,0.822-1.006,0.752C485.328,272.345,484.992,271.895,485.062,271.409z"/>
						<path style="fill:#FFFFFF;" d="M481.56,270.903c0.07-0.486,0.52-0.822,1.006-0.752c0.485,0.07,0.822,0.52,0.752,1.006
							c-0.07,0.486-0.521,0.822-1.006,0.752C481.826,271.839,481.49,271.389,481.56,270.903z"/>
						<path style="fill:#FFFFFF;" d="M478.058,270.397c0.07-0.486,0.521-0.822,1.006-0.752c0.485,0.07,0.822,0.52,0.752,1.006
							c-0.07,0.485-0.521,0.822-1.006,0.752C478.324,271.333,477.987,270.883,478.058,270.397z"/>
					</g>
				</g>
				<g>

						<linearGradient id="SVGID_00000138557550427272766230000006813686269798497677_" gradientUnits="userSpaceOnUse" x1="350.0604" y1="508.2271" x2="451.9844" y2="548.1473" gradientTransform="matrix(0.9897 0.143 -0.143 0.9897 91.5756 -303.9694)">
						<stop  offset="0" style="stop-color:#8AB9FD"/>
						<stop  offset="1" style="stop-color:#0056E9"/>
					</linearGradient>
					<path style="fill:url(#SVGID_00000138557550427272766230000006813686269798497677_);" d="M388.798,259.358
						c-0.243,1.681-1.041,3.142-2.185,4.227c-1.559,1.478-3.754,2.255-6.045,1.924c-2.29-0.331-4.176-1.698-5.252-3.557
						c-0.789-1.364-1.142-2.991-0.899-4.672c0.574-3.971,4.258-6.725,8.229-6.151C386.619,251.703,389.372,255.387,388.798,259.358z
						"/>

						<linearGradient id="SVGID_00000075148321062805309110000017175625513964426683_" gradientUnits="userSpaceOnUse" x1="353.9767" y1="498.2279" x2="455.9015" y2="538.1484" gradientTransform="matrix(0.9897 0.143 -0.143 0.9897 91.5756 -303.9694)">
						<stop  offset="0" style="stop-color:#8AB9FD"/>
						<stop  offset="1" style="stop-color:#0056E9"/>
					</linearGradient>
					<path style="fill:url(#SVGID_00000075148321062805309110000017175625513964426683_);" d="M420.727,264.125l-26.007-3.758
						c-0.733-0.106-1.242-0.786-1.136-1.52l0,0c0.106-0.733,0.786-1.242,1.52-1.136l26.007,3.758
						c0.733,0.106,1.242,0.786,1.136,1.519l0,0C422.141,263.723,421.461,264.231,420.727,264.125z"/>

						<linearGradient id="SVGID_00000071552900679690458830000014909055296816363688_" gradientUnits="userSpaceOnUse" x1="351.4455" y1="504.6899" x2="453.3704" y2="544.6105" gradientTransform="matrix(0.9897 0.143 -0.143 0.9897 91.5756 -303.9694)">
						<stop  offset="0" style="stop-color:#8AB9FD"/>
						<stop  offset="1" style="stop-color:#0056E9"/>
					</linearGradient>
					<path style="fill:url(#SVGID_00000071552900679690458830000014909055296816363688_);" d="M405.43,265.78l-11.905-1.72
						c-0.375-0.054-0.636-0.403-0.582-0.778l0.021-0.145c0.054-0.376,0.403-0.636,0.778-0.582l11.905,1.72
						c0.376,0.054,0.636,0.403,0.582,0.778l-0.021,0.145C406.154,265.574,405.806,265.835,405.43,265.78z"/>

						<linearGradient id="SVGID_00000090282357865680768870000014678471093351940768_" gradientUnits="userSpaceOnUse" x1="353.0667" y1="500.5513" x2="454.9909" y2="540.4716" gradientTransform="matrix(0.9897 0.143 -0.143 0.9897 91.5756 -303.9694)">
						<stop  offset="0" style="stop-color:#8AB9FD"/>
						<stop  offset="1" style="stop-color:#0056E9"/>
					</linearGradient>
					<path style="fill:url(#SVGID_00000090282357865680768870000014678471093351940768_);" d="M414.685,267.118l-6.288-0.909
						c-0.376-0.054-0.636-0.403-0.582-0.778l0.021-0.145c0.054-0.376,0.403-0.636,0.778-0.582l6.288,0.909
						c0.376,0.054,0.636,0.403,0.582,0.778l-0.021,0.145C415.409,266.911,415.061,267.172,414.685,267.118z"/>

						<linearGradient id="SVGID_00000054250081854287840570000004874369346578830733_" gradientUnits="userSpaceOnUse" x1="351.9899" y1="503.2996" x2="453.9149" y2="543.2202" gradientTransform="matrix(0.9897 0.143 -0.143 0.9897 91.5756 -303.9694)">
						<stop  offset="0" style="stop-color:#8AB9FD"/>
						<stop  offset="1" style="stop-color:#0056E9"/>
					</linearGradient>
					<path style="fill:url(#SVGID_00000054250081854287840570000004874369346578830733_);" d="M447.409,278.831l-54.799-7.919
						c-0.416-0.06-0.704-0.446-0.644-0.861l0,0c0.06-0.416,0.446-0.704,0.861-0.644l54.799,7.919
						c0.416,0.06,0.704,0.446,0.644,0.861l0,0C448.21,278.603,447.825,278.891,447.409,278.831z"/>
				</g>
				<g>

						<linearGradient id="SVGID_00000140736579907099045510000000036858120809138615_" gradientUnits="userSpaceOnUse" x1="364.3118" y1="648.8591" x2="449.2487" y2="660.8564" gradientTransform="matrix(0.9897 0.143 -0.143 0.9897 91.5756 -303.9694)">
						<stop  offset="0" style="stop-color:#8AB9FD"/>
						<stop  offset="1" style="stop-color:#0056E9"/>
					</linearGradient>
					<path style="fill:url(#SVGID_00000140736579907099045510000000036858120809138615_);" d="M414.19,406.273l-11.021-1.593
						c-0.416-0.06-0.704-0.446-0.644-0.861l0,0c0.06-0.416,0.446-0.704,0.861-0.644l11.021,1.593
						c0.416,0.06,0.704,0.446,0.644,0.861l0,0C414.992,406.045,414.606,406.333,414.19,406.273z"/>

						<linearGradient id="SVGID_00000050620505638426263970000004624137904147400072_" gradientUnits="userSpaceOnUse" x1="364.7295" y1="645.9018" x2="449.6664" y2="657.8991" gradientTransform="matrix(0.9897 0.143 -0.143 0.9897 91.5756 -303.9694)">
						<stop  offset="0" style="stop-color:#8AB9FD"/>
						<stop  offset="1" style="stop-color:#0056E9"/>
					</linearGradient>
					<path style="fill:url(#SVGID_00000050620505638426263970000004624137904147400072_);" d="M440.77,410.114l-21.905-3.165
						c-0.416-0.06-0.704-0.446-0.644-0.861l0,0c0.06-0.416,0.446-0.704,0.861-0.644l21.905,3.165
						c0.416,0.06,0.704,0.446,0.644,0.861l0,0C441.571,409.886,441.185,410.174,440.77,410.114z"/>
				</g>
				<g style="opacity:0.2;">

						<linearGradient id="SVGID_00000095321243948624553070000002787371340028076431_" gradientUnits="userSpaceOnUse" x1="489.4438" y1="763.0065" x2="514.0768" y2="895.9399" gradientTransform="matrix(0.9526 0.3041 -0.3041 0.9526 195.4313 -614.2112)">
						<stop  offset="0" style="stop-color:#8AB9FD"/>
						<stop  offset="1" style="stop-color:#0056E9"/>
					</linearGradient>
					<polygon style="fill:url(#SVGID_00000095321243948624553070000002787371340028076431_);" points="468.138,400.939
						355.904,384.72 372.123,272.486 484.357,288.705 					"/>
				</g>
			</g>
			<g>

					<linearGradient id="SVGID_00000150808977883787759390000016356550854926865817_" gradientUnits="userSpaceOnUse" x1="415.9182" y1="530.5529" x2="415.9182" y2="616.9075" gradientTransform="matrix(0.9897 0.143 -0.143 0.9897 91.5756 -303.9694)">
					<stop  offset="0" style="stop-color:#8AB9FD"/>
					<stop  offset="1" style="stop-color:#0056E9"/>
				</linearGradient>
				<path style="fill:url(#SVGID_00000150808977883787759390000016356550854926865817_);" d="M468.61,362.327
					c-10.779,20.685-31.174,30.989-54.583,27.606l-0.346-0.05c-21.631-3.243-32.233-14.54-37.326-23.435
					c-7.249-12.694-8.116-28.852-2.323-43.233c5.105-12.648,15.76-22.36,29.235-26.639c14.093-4.484,28.993-2.348,41.962,6.005
					c9.409,6.065,15.343,14.771,17.165,25.194c2.028,11.612-1.315,25.204-8.517,34.633c-12.073,15.801-33.582,17.936-48.588,11.877
					c-15.918-6.434-24.214-20.725-22.189-38.221c1.952-13.507,11.001-24.081,24.207-28.307c13.082-4.177,26.854-0.859,35.954,8.675
					c6.993,7.313,9.382,18.346,6.242,28.791c-2.995,9.97-10.297,17.175-19.534,19.285c-8.768,2.002-25.496,0.651-33.052-11.49
					c-4.997-8.041-4.904-17.993,0.257-25.97c5.23-8.109,14.343-12.145,24.374-10.796c9.408,1.242,16.109,7.034,17.9,15.452
					c1.691,7.95-1.757,16.115-8.582,20.313c-5.857,3.607-15.622,2.625-21.312-2.139c-3.635-3.046-5.482-7.826-4.934-12.78
					c0.516-4.732,3.088-8.637,7.059-10.702c4.578-2.372,10.025-2.156,14.22,0.568c3.372,2.193,5.254,5.625,5.034,9.181
					c-0.186,2.914-1.211,5.237-2.973,6.73c-1.656,1.399-3.948,2.026-6.455,1.756c-4.264-0.44-6.212-3.469-6.547-5.921
					c-0.38-2.66,0.927-5.076,3.23-6.012c0.428-0.173,0.911,0.031,1.085,0.459s-0.031,0.911-0.459,1.085
					c-1.615,0.649-2.485,2.313-2.21,4.243c0.253,1.852,1.74,4.125,5.081,4.499c2.045,0.211,3.897-0.277,5.208-1.382
					c1.426-1.206,2.226-3.073,2.376-5.564c0.182-2.948-1.411-5.817-4.277-7.676c-3.694-2.408-8.499-2.59-12.543-0.485
					c-3.47,1.801-5.722,5.232-6.173,9.402c-0.485,4.4,1.139,8.635,4.347,11.317c5.105,4.275,14.154,5.213,19.374,2.001
					c6.226-3.831,9.37-11.284,7.823-18.549c-1.635-7.698-7.806-12.968-16.492-14.147c-9.373-1.254-17.881,2.5-22.762,10.046
					c-4.797,7.432-4.893,16.704-0.236,24.192c7.098,11.412,22.944,12.651,31.268,10.754c8.647-1.977,15.492-8.761,18.311-18.151
					c2.965-9.874,0.729-20.28-5.847-27.163c-8.656-9.066-21.779-12.222-34.245-8.234c-12.589,4.021-21.212,14.093-23.068,26.934
					c-1.932,16.686,5.978,30.333,21.167,36.461c14.417,5.831,35.071,3.799,46.636-11.335c6.934-9.081,10.153-22.17,8.203-33.334
					c-1.737-9.956-7.425-18.282-16.426-24.087c-12.537-8.08-26.944-10.145-40.56-5.819c-12.999,4.13-23.276,13.493-28.189,25.681
					c-5.615,13.91-4.779,29.526,2.222,41.781c4.904,8.574,15.161,19.467,36.125,22.615l0.338,0.049
					c22.685,3.278,42.428-6.7,52.878-26.735c10.578-20.285,7.766-44.38-6.983-59.947c-13.897-14.663-35.095-20.844-55.314-16.127
					c-17.913,4.176-32.251,16.229-39.335,32.742l0.789-5.457c7.864-14.527,21.506-25.025,38.167-28.903
					c20.793-4.852,42.603,1.51,56.901,16.6C476.604,316.543,479.525,341.401,468.61,362.327z"/>
			</g>
		</g>
		<g>
			<g>

					<rect x="271.194" y="130.06" transform="matrix(0.9863 -0.1648 0.1648 0.9863 -33.1634 59.8531)" style="fill:#FFFFFF;" width="145.973" height="199.515"/>

					<rect x="271.194" y="130.06" transform="matrix(0.9863 -0.1648 0.1648 0.9863 -33.1634 59.8531)" style="fill:none;stroke:#242548;stroke-linecap:round;stroke-linejoin:round;stroke-miterlimit:10;" width="145.973" height="199.515"/>
				<g id="XMLID_00000008118674174174683220000005492771862651066295_">

						<linearGradient id="SVGID_00000018945132947902944270000004168891316192863875_" gradientUnits="userSpaceOnUse" x1="295.9711" y1="45.5823" x2="398.1017" y2="60.0082" gradientTransform="matrix(0.9863 -0.1648 0.1648 0.9863 -4.5421 326.4084)">
						<stop  offset="0" style="stop-color:#8AB9FD"/>
						<stop  offset="1" style="stop-color:#0056E9"/>
					</linearGradient>
					<path style="fill:url(#SVGID_00000018945132947902944270000004168891316192863875_);" d="M315.858,315.732
						c-3.484,0.582-5.832,3.871-5.25,7.355c0.582,3.484,3.872,5.832,7.355,5.25c3.473-0.58,5.821-3.87,5.239-7.354
						C322.621,317.499,319.331,315.151,315.858,315.732z M321.148,321.478c-0.068,0.5-0.307,0.952-0.626,1.32l-2.93,3.311
						l-3.858-2.177c-0.421-0.244-0.794-0.595-1.021-1.045c-0.949-1.849,0.475-4.236,2.701-3.772
						c0.609,0.137,1.144,0.807,1.144,0.807s0.278-0.806,0.809-1.133C319.322,317.627,321.444,319.421,321.148,321.478z"/>

						<linearGradient id="SVGID_00000116236825373038337430000012333906367138073511_" gradientUnits="userSpaceOnUse" x1="295.5966" y1="48.2336" x2="397.7253" y2="62.6593" gradientTransform="matrix(0.9863 -0.1648 0.1648 0.9863 -4.5421 326.4084)">
						<stop  offset="0" style="stop-color:#8AB9FD"/>
						<stop  offset="1" style="stop-color:#0056E9"/>
					</linearGradient>
					<path style="fill:url(#SVGID_00000116236825373038337430000012333906367138073511_);" d="M305.379,330.436l-1.536-2.608
						c0.507-1.116,0.699-2.39,0.482-3.692c-0.582-3.484-3.872-5.832-7.355-5.25c-3.473,0.58-5.832,3.872-5.25,7.355
						c0.582,3.484,3.882,5.83,7.355,5.25c1.304-0.218,2.449-0.816,3.341-1.661L305.379,330.436z M301.035,323.742
						c0.507-0.085,0.987,0.258,1.072,0.765c0.085,0.507-0.258,0.987-0.765,1.072c-0.507,0.085-0.987-0.258-1.072-0.765
						C300.186,324.307,300.529,323.827,301.035,323.742z M295.019,326.635c-0.507,0.085-0.987-0.258-1.072-0.765
						c-0.085-0.507,0.258-0.987,0.765-1.072c0.507-0.085,0.987,0.258,1.072,0.765C295.868,326.07,295.525,326.551,295.019,326.635z
						 M298.175,326.108c-0.507,0.085-0.987-0.258-1.072-0.765c-0.085-0.507,0.258-0.987,0.765-1.072
						c0.507-0.085,0.987,0.258,1.072,0.765C299.025,325.543,298.682,326.023,298.175,326.108z"/>

						<linearGradient id="SVGID_00000125563971241641479020000000850755629572937866_" gradientUnits="userSpaceOnUse" x1="296.3456" y1="42.9326" x2="398.4757" y2="57.3585" gradientTransform="matrix(0.9863 -0.1648 0.1648 0.9863 -4.5421 326.4084)">
						<stop  offset="0" style="stop-color:#8AB9FD"/>
						<stop  offset="1" style="stop-color:#0056E9"/>
					</linearGradient>
					<path style="fill:url(#SVGID_00000125563971241641479020000000850755629572937866_);" d="M334.731,312.579
						c-3.473,0.58-5.832,3.872-5.25,7.355c0.582,3.484,3.882,5.83,7.355,5.25c3.484-0.582,5.832-3.872,5.25-7.355
						C341.504,314.345,338.215,311.997,334.731,312.579z M340.036,318.095c0.057,0.338-0.093,0.678-0.353,0.873
						c0.072,0.107,0.125,0.229,0.148,0.366c0.056,0.338-0.082,0.676-0.355,0.862c0.085,0.116,0.137,0.237,0.16,0.375
						c0.081,0.486-0.253,0.954-0.739,1.035l-4.497,0.751l0.041,0.243c0.018,0.106-0.053,0.204-0.158,0.222l-1.964,0.328
						c-0.105,0.018-0.204-0.053-0.222-0.158l-0.838-5.014c-0.018-0.106,0.053-0.204,0.158-0.222l1.964-0.328
						c0.106-0.018,0.204,0.053,0.222,0.158l0.078,0.465c0.178-0.106,0.355-0.211,0.412-0.264c0.498-0.528,0.599-1.609,0.629-2.601
						c0.002-0.055,0-0.13-0.012-0.204c-0.014-0.345-0.036-0.862,0.353-1.068c0.199-0.109,0.501-0.116,0.767-0.02
						c0.334,0.118,0.593,0.367,0.748,0.711c0.164,0.396,0.366,1.284,0.351,1.905l1.879-0.314c0.486-0.081,0.954,0.253,1.035,0.739
						c0.035,0.211-0.014,0.436-0.125,0.618C339.881,317.687,340.001,317.884,340.036,318.095z"/>
				</g>
				<g>
					<g>
						<path style="fill:#FFFFFF;" d="M395.263,134.793c-0.097-0.582,0.296-1.132,0.877-1.229c0.582-0.097,1.132,0.296,1.229,0.878
							c0.097,0.582-0.296,1.132-0.877,1.229C395.91,135.768,395.36,135.375,395.263,134.793z"/>
						<path style="fill:#FFFFFF;" d="M391.066,135.494c-0.097-0.582,0.296-1.132,0.877-1.229s1.132,0.296,1.229,0.877
							c0.097,0.582-0.296,1.132-0.877,1.229S391.163,136.076,391.066,135.494z"/>
						<path style="fill:#FFFFFF;" d="M386.869,136.195c-0.097-0.582,0.296-1.132,0.877-1.229c0.582-0.097,1.132,0.296,1.229,0.878
							c0.097,0.582-0.296,1.132-0.877,1.229C387.517,137.17,386.967,136.777,386.869,136.195z"/>
					</g>
				</g>
				<g>

						<linearGradient id="SVGID_00000054945612447389166290000003867719655099055024_" gradientUnits="userSpaceOnUse" x1="279.6248" y1="-129.0978" x2="402.1813" y2="-81.0966" gradientTransform="matrix(0.9863 -0.1648 0.1648 0.9863 -4.5421 326.4084)">
						<stop  offset="0" style="stop-color:#8AB9FD"/>
						<stop  offset="1" style="stop-color:#0056E9"/>
					</linearGradient>
					<path style="fill:url(#SVGID_00000054945612447389166290000003867719655099055024_);" d="M280.59,156.195
						c0.336,2.015-0.044,3.98-0.957,5.641c-1.245,2.263-3.476,3.956-6.22,4.415c-2.744,0.458-5.405-0.418-7.317-2.153
						c-1.403-1.274-2.402-3.009-2.738-5.023c-0.795-4.759,2.417-9.26,7.176-10.055C275.293,148.223,279.795,151.436,280.59,156.195z
						"/>

						<linearGradient id="SVGID_00000183249753622513162920000005501528517796866703_" gradientUnits="userSpaceOnUse" x1="284.3337" y1="-141.1208" x2="406.8914" y2="-93.1191" gradientTransform="matrix(0.9863 -0.1648 0.1648 0.9863 -4.5421 326.4084)">
						<stop  offset="0" style="stop-color:#8AB9FD"/>
						<stop  offset="1" style="stop-color:#0056E9"/>
					</linearGradient>
					<path style="fill:url(#SVGID_00000183249753622513162920000005501528517796866703_);" d="M318.906,149.978l-31.164,5.206
						c-0.879,0.147-1.71-0.447-1.857-1.325l0,0c-0.147-0.879,0.447-1.71,1.325-1.857l31.164-5.206
						c0.879-0.147,1.71,0.446,1.857,1.325l0,0C320.378,149,319.785,149.831,318.906,149.978z"/>

						<linearGradient id="SVGID_00000033363668746754798420000003671051195108754857_" gradientUnits="userSpaceOnUse" x1="281.2902" y1="-133.3508" x2="403.848" y2="-85.3491" gradientTransform="matrix(0.9863 -0.1648 0.1648 0.9863 -4.5421 326.4084)">
						<stop  offset="0" style="stop-color:#8AB9FD"/>
						<stop  offset="1" style="stop-color:#0056E9"/>
					</linearGradient>
					<path style="fill:url(#SVGID_00000033363668746754798420000003671051195108754857_);" d="M301.99,157.468l-14.265,2.383
						c-0.45,0.075-0.876-0.229-0.951-0.679l-0.029-0.174c-0.075-0.45,0.229-0.876,0.679-0.951l14.265-2.383
						c0.45-0.075,0.876,0.229,0.951,0.679l0.029,0.174C302.743,156.967,302.439,157.393,301.99,157.468z"/>

						<linearGradient id="SVGID_00000156575839317249299120000006077114358757553567_" gradientUnits="userSpaceOnUse" x1="283.2393" y1="-138.327" x2="405.7966" y2="-90.3255" gradientTransform="matrix(0.9863 -0.1648 0.1648 0.9863 -4.5421 326.4084)">
						<stop  offset="0" style="stop-color:#8AB9FD"/>
						<stop  offset="1" style="stop-color:#0056E9"/>
					</linearGradient>
					<path style="fill:url(#SVGID_00000156575839317249299120000006077114358757553567_);" d="M313.079,155.615l-7.535,1.259
						c-0.45,0.075-0.876-0.229-0.951-0.679l-0.029-0.174c-0.075-0.45,0.229-0.876,0.679-0.951l7.535-1.259
						c0.45-0.075,0.876,0.229,0.951,0.679l0.029,0.174C313.833,155.114,313.529,155.54,313.079,155.615z"/>

						<linearGradient id="SVGID_00000003815546513184666440000015015810077488081325_" gradientUnits="userSpaceOnUse" x1="281.9445" y1="-135.0223" x2="404.5025" y2="-87.0205" gradientTransform="matrix(0.9863 -0.1648 0.1648 0.9863 -4.5421 326.4084)">
						<stop  offset="0" style="stop-color:#8AB9FD"/>
						<stop  offset="1" style="stop-color:#0056E9"/>
					</linearGradient>
					<path style="fill:url(#SVGID_00000003815546513184666440000015015810077488081325_);" d="M354.847,157.064l-65.666,10.97
						c-0.498,0.083-0.969-0.253-1.053-0.751l0,0c-0.083-0.498,0.253-0.969,0.751-1.053l65.666-10.97
						c0.498-0.083,0.969,0.253,1.052,0.751l0,0C355.682,156.51,355.345,156.981,354.847,157.064z"/>
				</g>
				<g>

						<linearGradient id="SVGID_00000067236273096462383110000008314299087402394026_" gradientUnits="userSpaceOnUse" x1="296.7595" y1="40.0028" x2="398.8899" y2="54.4287" gradientTransform="matrix(0.9863 -0.1648 0.1648 0.9863 -4.5421 326.4084)">
						<stop  offset="0" style="stop-color:#8AB9FD"/>
						<stop  offset="1" style="stop-color:#0056E9"/>
					</linearGradient>
					<path style="fill:url(#SVGID_00000067236273096462383110000008314299087402394026_);" d="M363.404,315.193l-13.207,2.206
						c-0.498,0.083-0.969-0.253-1.053-0.751l0,0c-0.083-0.498,0.253-0.969,0.751-1.053l13.207-2.206
						c0.498-0.083,0.969,0.253,1.052,0.751l0,0C364.239,314.639,363.902,315.11,363.404,315.193z"/>

						<linearGradient id="SVGID_00000020379052615785167540000001466852075685429914_" gradientUnits="userSpaceOnUse" x1="297.2614" y1="36.447" x2="399.3924" y2="50.873" gradientTransform="matrix(0.9863 -0.1648 0.1648 0.9863 -4.5421 326.4084)">
						<stop  offset="0" style="stop-color:#8AB9FD"/>
						<stop  offset="1" style="stop-color:#0056E9"/>
					</linearGradient>
					<path style="fill:url(#SVGID_00000020379052615785167540000001466852075685429914_);" d="M395.254,309.872l-26.249,4.385
						c-0.498,0.083-0.969-0.253-1.053-0.751l0,0c-0.083-0.498,0.253-0.969,0.751-1.052l26.249-4.385
						c0.498-0.083,0.969,0.253,1.053,0.751l0,0C396.089,309.318,395.752,309.789,395.254,309.872z"/>
				</g>
				<g style="opacity:0.2;">

						<linearGradient id="SVGID_00000022560191018836225250000010547386669247051447_" gradientUnits="userSpaceOnUse" x1="328.1538" y1="143.6762" x2="357.7708" y2="303.5063">
						<stop  offset="0" style="stop-color:#8AB9FD"/>
						<stop  offset="1" style="stop-color:#0056E9"/>
					</linearGradient>
					<polygon style="fill:url(#SVGID_00000022560191018836225250000010547386669247051447_);" points="423.248,289.353
						288.758,311.821 266.29,177.33 400.781,154.862 					"/>
				</g>
			</g>
			<g>

					<linearGradient id="SVGID_00000038398201741990609600000000776645247240939916_" gradientUnits="userSpaceOnUse" x1="358.8133" y1="-102.2519" x2="358.8133" y2="1.5834" gradientTransform="matrix(0.9863 -0.1648 0.1648 0.9863 -4.5421 326.4084)">
					<stop  offset="0" style="stop-color:#E4816F"/>
					<stop  offset="1" style="stop-color:#E25E52"/>
				</linearGradient>
				<path style="fill:url(#SVGID_00000038398201741990609600000000776645247240939916_);" d="M409.668,244.952
					c-4.782,27.636-24.376,46.898-52.427,51.584l-0.414,0.069c-25.964,4.195-42.239-4.867-51.326-13.193
					c-12.946-11.889-19.848-30.081-18.472-48.672c1.222-16.355,9.875-31.376,23.745-41.206c14.503-10.29,32.352-13.292,50.262-8.467
					c12.996,3.507,22.978,11.309,28.876,22.581c6.569,12.559,7.711,29.35,2.91,42.785c-8.05,22.514-31.907,32.826-51.312,31.374
					c-20.587-1.549-35.315-14.884-39.395-35.666c-2.704-16.186,3.794-31.607,17.376-41.277c13.457-9.568,30.446-10.804,44.357-3.213
					c10.685,5.819,17.456,17.584,17.68,30.696c0.215,12.516-5.513,23.439-15.322,29.234c-9.311,5.499-28.966,10.071-42.062-1.074
					c-8.665-7.383-12.198-18.817-9.203-29.841c3.026-11.202,11.987-19.157,23.971-21.281c11.231-2.018,21.024,2.165,26.155,11.153
					c4.845,8.488,3.88,19.102-2.402,26.407c-5.39,6.274-16.935,8.72-25.194,5.344c-5.278-2.16-9.142-6.959-10.326-12.834
					c-1.14-5.609,0.379-11.023,4.172-14.84c4.376-4.391,10.695-6.136,16.496-4.55c4.664,1.279,8.075,4.521,9.124,8.675
					c0.853,3.406,0.529,6.441-0.944,8.796c-1.385,2.208-3.781,3.764-6.752,4.372c-5.045,1.056-8.385-1.702-9.665-4.387
					c-1.408-2.908-0.795-6.153,1.501-8.068c0.427-0.355,1.055-0.298,1.411,0.129c0.355,0.427,0.298,1.055-0.129,1.41
					c-1.612,1.334-2.001,3.558-0.979,5.669c0.967,2.028,3.502,4.089,7.465,3.295c2.42-0.506,4.362-1.743,5.46-3.487
					c1.193-1.903,1.425-4.334,0.686-7.242c-0.869-3.444-3.744-6.147-7.707-7.229c-5.112-1.407-10.683,0.142-14.544,4.032
					c-3.316,3.332-4.641,8.085-3.633,13.027c1.054,5.218,4.462,9.474,9.119,11.373c7.411,3.03,18.119,0.795,22.924-4.793
					c5.73-6.665,6.606-16.352,2.177-24.108c-4.689-8.22-13.684-11.999-24.065-10.174c-11.195,1.992-19.568,9.403-22.399,19.832
					c-2.776,10.268,0.505,20.923,8.578,27.797c12.304,10.476,30.908,6.101,39.749,0.883c9.181-5.427,14.542-15.701,14.337-27.488
					c-0.215-12.394-6.582-23.497-16.632-28.976c-13.23-7.219-29.417-6.035-42.238,3.092c-12.95,9.21-19.143,23.901-16.573,39.288
					c3.889,19.82,17.94,32.559,37.58,34.023c18.647,1.407,41.562-8.474,49.274-30.04c4.621-12.938,3.522-29.108-2.794-41.182
					c-5.632-10.769-15.191-18.226-27.624-21.583c-17.316-4.671-34.574-1.767-48.588,8.168c-13.38,9.484-21.728,23.968-22.897,39.726
					c-1.345,17.987,5.324,35.569,17.826,47.046c8.753,8.028,24.486,16.754,49.65,12.693l0.405-0.068
					c27.183-4.541,46.149-23.191,50.792-49.962c4.698-27.105-7.335-53.675-29.923-66.113c-21.281-11.714-47.823-11.041-69.257,1.756
					c-18.992,11.334-31.007,30.384-33.082,51.89l-1.092-6.539c3.695-19.516,15.482-36.53,33.148-47.065
					c22.043-13.162,49.352-13.851,71.248-1.794C402.081,189.585,414.517,216.991,409.668,244.952z"/>
			</g>
		</g>
	</g>
	<g>
		<g>

				<linearGradient id="SVGID_00000009582530883185563680000016174021323081103764_" gradientUnits="userSpaceOnUse" x1="532.9862" y1="369.0819" x2="532.9862" y2="372.5966">
				<stop  offset="0" style="stop-color:#E4816F"/>
				<stop  offset="1" style="stop-color:#E25E52"/>
			</linearGradient>
			<path style="fill:url(#SVGID_00000009582530883185563680000016174021323081103764_);" d="M517.657,372.597
				c-0.114,0-0.228,0-0.342,0l0.004-2c0.112,0,0.226,0,0.338,0c10.409,0,21.935-0.808,30.842-1.515l0.158,1.994
				C539.715,371.786,528.136,372.597,517.657,372.597z"/>

				<linearGradient id="SVGID_00000096021153565136436300000005289380016472044436_" gradientUnits="userSpaceOnUse" x1="531.4467" y1="321.5478" x2="531.4467" y2="323.685">
				<stop  offset="0" style="stop-color:#E4816F"/>
				<stop  offset="1" style="stop-color:#E25E52"/>
			</linearGradient>
			<path style="fill:url(#SVGID_00000096021153565136436300000005289380016472044436_);" d="M537.863,323.685l-2.624-0.018
				c-3.368-0.022-6.851-0.045-10.225-0.119l0.045-2c3.357,0.074,6.832,0.097,10.192,0.119l2.627,0.018L537.863,323.685z"/>
		</g>
		<g>
			<path d="M517.352,200.743c-4.606-0.769-8.679-4.404-9.694-8.963c-1.016-4.558,1.276-9.725,5.46-11.797
				c-1.673-0.955-2.644-3.007-2.319-4.906c0.325-1.899,1.922-3.513,3.818-3.857c-3.244-4.301-1.808-11.961,7.479-12.344
				c-1.77-8.617,9.096-12.255,12.909-7.83c0.854-1.481,2.217-1.982,3.607-2.056c1.795-0.096,3.207,0.91,3.454,2.224
				c2.977-1.817,5.975-1.721,8.889-0.866c2.915,0.855,5.464,3.273,5.929,6.275c2.769,0.27,5.547,1.518,7.141,3.798
				c1.594,2.28,1.712,5.657-0.137,7.736c1.648,1.65,3.119,3.624,3.502,5.924c0.383,2.3-0.61,4.951-2.748,5.883
				c1.633,1.479,3.123,3.325,3.372,5.514c0.249,2.189-1.217,4.671-3.414,4.828c0.627,0.196,1.052,0.895,0.937,1.542
				c-0.115,0.647-0.756,1.156-1.412,1.123c2.248,2.142,3.372,5.404,2.92,8.475c-0.452,3.072-2.468,5.872-5.237,7.275
				c-2.15,1.089-4.618,1.344-7.026,1.462c-11.127,0.545-22.373-1.471-32.617-5.85"/>

				<linearGradient id="SVGID_00000125586166762266032650000015057699404418230930_" gradientUnits="userSpaceOnUse" x1="502.8363" y1="232.1399" x2="503.6022" y2="172.3953">
				<stop  offset="0" style="stop-color:#914713"/>
				<stop  offset="1" style="stop-color:#AF6145"/>
			</linearGradient>
			<path style="fill:url(#SVGID_00000125586166762266032650000015057699404418230930_);" d="M525.037,203.05
				c0,0-1.891-0.508-3.387-1.281c-2.054-1.061-4.563-2.835-8.422-2.548c-10.745,0.8-32.401,28.829-32.182,30.087
				c0.219,1.258,7.305,9.776,9.339,9.552c2.034-0.224,28.013-20.162,29.156-21.786C520.683,215.451,525.037,203.05,525.037,203.05z"
				/>
			<path d="M492.496,228.503c-1.13,3.18-6.02,1.12-10.18-1.37c2.09-3.03,6.59-8.7,11.75-14.15
				C494.106,216.983,493.956,224.433,492.496,228.503z"/>

				<linearGradient id="SVGID_00000125579684638061549100000011477449500634926981_" gradientUnits="userSpaceOnUse" x1="490.4045" y1="387.5728" x2="490.4045" y2="437.9225">
				<stop  offset="0" style="stop-color:#914713"/>
				<stop  offset="1" style="stop-color:#AF6145"/>
			</linearGradient>
			<path style="fill:url(#SVGID_00000125579684638061549100000011477449500634926981_);" d="M482.466,401.046l-6.551,36
				c0,0,12.511,3.447,20.043,2.043l8.936-33.191"/>

				<linearGradient id="SVGID_00000015321319102271840480000016521968031795950237_" gradientUnits="userSpaceOnUse" x1="979.4295" y1="-613.4803" x2="979.4295" y2="-564.7211" gradientTransform="matrix(0.7378 -0.6751 0.6751 0.7378 256.5018 1500.3719)">
				<stop  offset="0" style="stop-color:#914713"/>
				<stop  offset="1" style="stop-color:#AF6145"/>
			</linearGradient>
			<path style="fill:url(#SVGID_00000015321319102271840480000016521968031795950237_);" d="M568.851,400.663l16.916,31.677
				c0,0,11.557-5.902,16.166-12.023l-14.643-32.456"/>

				<linearGradient id="SVGID_00000020369443371901922180000001705331228386962817_" gradientUnits="userSpaceOnUse" x1="557.5273" y1="478.0081" x2="518.4634" y2="337.0719">
				<stop  offset="0" style="stop-color:#8AB9FD"/>
				<stop  offset="1" style="stop-color:#0056E9"/>
			</linearGradient>
			<path style="fill:url(#SVGID_00000020369443371901922180000001705331228386962817_);" d="M569.49,348.263l-6.51-43.66
				c0,0,2.683-24.314-13.02-38.008l-39.164,0.975c0,0-4.975,3.14-8.805,21.331c-2.389,13.668-7.519,36.379-11.585,58.592
				c-5.504,30.068-9.813,58.781-9.813,58.781c5.026,4.031,26.09,7.478,33.092,4.216l7.551-56.291l8.906-44.145l1.216,0.624
				l9.026,41.415l18.392,56.74c10.715,1.09,26.8-4.655,33.121-11.97L569.49,348.263z"/>
			<path style="fill:none;stroke:#000000;stroke-linecap:round;stroke-linejoin:round;stroke-miterlimit:10;" d="M482.562,403.216
				c0,0,13.404,5.936,29.585,3.83"/>
			<path style="fill:none;stroke:#000000;stroke-linecap:round;stroke-linejoin:round;stroke-miterlimit:10;" d="M560.211,405.357
				c0,0,17.362-0.226,28.723-10.566"/>

				<linearGradient id="SVGID_00000124128410568263524480000018363935661206396055_" gradientUnits="userSpaceOnUse" x1="532.7714" y1="201.8838" x2="532.7714" y2="265.3696">
				<stop  offset="0" style="stop-color:#875FA7"/>
				<stop  offset="1" style="stop-color:#582792"/>
			</linearGradient>
			<path style="fill:url(#SVGID_00000124128410568263524480000018363935661206396055_);" d="M531.846,204.549
				c0,0-5.671-1.693-11.435-3.436c0,0-6.374,7.305-12.908,14.62c-5.793,6.484-3.997,14.443-2.867,18.746
				c1.431,5.449,6.159,33.09,6.159,33.09s17.381,5.416,39.164-0.975c0,0-0.885-7.456-0.4-16.595
				c0.303-5.697,4.728-14.284,6.642-19.89c4.985-14.6,5.884-22.911,5.884-22.911l-14.446-1.031L531.846,204.549z"/>
			<path d="M550.543,214.121c0,0-5.508,15.606-1.199,18.436c5.139,3.376,9.622-10.059,9.622-10.059"/>

				<linearGradient id="SVGID_00000000215830367762157360000011066937739051743134_" gradientUnits="userSpaceOnUse" x1="540.1937" y1="209.0356" x2="535.7894" y2="169.2059">
				<stop  offset="0" style="stop-color:#914713"/>
				<stop  offset="1" style="stop-color:#AF6145"/>
			</linearGradient>
			<path style="fill:url(#SVGID_00000000215830367762157360000011066937739051743134_);" d="M534.629,185.385
				c0,0-2.1,11.796-4.147,19.346c0,0,2.798,6.199,17.194,2.414l-0.761-20.864L534.629,185.385z"/>
			<path d="M546.936,186.773l-1.73,2.29c0,0-2.38,7.42-13.3,9.85c1.49-6.63,2.72-13.53,2.72-13.53l12.29,0.9L546.936,186.773z"/>

				<linearGradient id="SVGID_00000030451410067248566150000007838978059200065155_" gradientUnits="userSpaceOnUse" x1="541.6118" y1="206.7725" x2="537.2075" y2="166.9428">
				<stop  offset="0" style="stop-color:#914713"/>
				<stop  offset="1" style="stop-color:#AF6145"/>
			</linearGradient>
			<path style="fill:url(#SVGID_00000030451410067248566150000007838978059200065155_);" d="M527.821,160.177
				c-4.346,6.097-11.179,20.262-5.065,29.52c6.114,9.258,25.261,5.179,31.616-9.607
				C563.454,158.955,536.205,148.416,527.821,160.177z"/>
			<g>
				<path d="M498.949,188.038l-14.057-3.108c-1.765-0.39-2.879-2.137-2.489-3.902l6.728-30.431c0.39-1.765,2.137-2.879,3.902-2.489
					l14.057,3.108c1.765,0.39,2.879,2.137,2.489,3.902l-6.728,30.432C502.461,187.314,500.714,188.428,498.949,188.038z"/>
				<path style="fill:#FFFFFF;" d="M494.27,152.088c-0.181,0.818-0.991,1.335-1.809,1.154c-0.818-0.181-1.335-0.991-1.154-1.809
					c0.181-0.818,0.991-1.335,1.809-1.154C493.935,150.459,494.451,151.269,494.27,152.088z"/>
				<path style="fill:#FFFFFF;" d="M492.917,155.203c-0.104,0.468-0.567,0.764-1.035,0.66c-0.468-0.104-0.764-0.567-0.66-1.035
					c0.103-0.468,0.567-0.764,1.035-0.66C492.725,154.271,493.02,154.734,492.917,155.203z"/>
			</g>

				<linearGradient id="SVGID_00000036947568949807238380000009560328177094645899_" gradientUnits="userSpaceOnUse" x1="487.2273" y1="227.7576" x2="488.4092" y2="135.5651">
				<stop  offset="0" style="stop-color:#914713"/>
				<stop  offset="1" style="stop-color:#AF6145"/>
			</linearGradient>
			<path style="fill:url(#SVGID_00000036947568949807238380000009560328177094645899_);" d="M498.814,167.525
				c-2.294,0.351-11.261,1.934-11.261,1.934s5.853-7.684,6.673-9.137c1.327-2.351-0.493-3.678-2.066-2.483
				c0,0-10.294,8.701-11.659,11.317c-1.365,2.616-3.299,17.005-3.299,17.005s-6.426,33.706,0.243,47.404
				c1.956,4.017,6.666,7.781,13.091,5.238s-4.462-50.027-4.462-50.027s2.806-2.749,2.54-6.426c0,0,7.292-0.284,8.607-0.796
				c1.677-0.654,1.539-2.633,0-2.616c-2.588,0.028-8.986-0.27-8.986-0.27s9.7-1.981,10.768-2.573
				c1.488-0.825,1.848-3.086-0.388-3.01c-2.237,0.076-10.417,1.114-10.417,1.114s11.117-3.423,11.73-3.678
				C501.089,170.036,501.913,167.051,498.814,167.525z"/>

				<linearGradient id="SVGID_00000168074485462906179050000013636664419734215562_" gradientUnits="userSpaceOnUse" x1="471.061" y1="418.8445" x2="471.061" y2="454.4433">
				<stop  offset="0" style="stop-color:#8AB9FD"/>
				<stop  offset="1" style="stop-color:#0056E9"/>
			</linearGradient>
			<path style="fill:url(#SVGID_00000168074485462906179050000013636664419734215562_);" d="M497.334,434.098l-10.678,1.258
				c0,0-4.623-6.267-12.328-6.986l-1.644,6.986l-9.04,2.895c0,0-22.601-6.977-21.985,17.254h57.839
				C499.498,455.506,502.772,442.497,497.334,434.098z"/>
			<path d="M500.072,452.043c0.994,0.992,0.301,3.46,0.301,3.46h-58.738c-0.634-1.287-0.602-2.946,0.1-3.46H500.072z"/>

				<linearGradient id="SVGID_00000128468859898240904060000010256729278561060018_" gradientUnits="userSpaceOnUse" x1="585.8152" y1="399.8356" x2="585.8152" y2="453.8925">
				<stop  offset="0" style="stop-color:#8AB9FD"/>
				<stop  offset="1" style="stop-color:#0056E9"/>
			</linearGradient>
			<path style="fill:url(#SVGID_00000128468859898240904060000010256729278561060018_);" d="M599.219,414.301l-8.665,7.298
				c0,0-6.766-2.553-12.807-0.196l4.19,7.376l-4.386,4.984c0,0-25.104-3.548-20.891,21.742h32.84l25.947-23.166
				C615.447,432.34,611.331,417.151,599.219,414.301z"/>
			<path d="M616.53,431.47l-27.034,24.033h-33.689c-0.21-1.22-0.447-2.819,0.449-3.46h30.19l27.38-23.97
				C615.934,429.019,616.53,431.47,616.53,431.47z"/>

				<linearGradient id="SVGID_00000112614793998166268800000007566055426383325059_" gradientUnits="userSpaceOnUse" x1="564.4121" y1="180.9101" x2="564.4121" y2="278.0206">
				<stop  offset="0" style="stop-color:#914713"/>
				<stop  offset="1" style="stop-color:#AF6145"/>
			</linearGradient>
			<path style="fill:url(#SVGID_00000112614793998166268800000007566055426383325059_);" d="M558.241,206.924
				c5.726-0.272,7.633,1.368,10.483,6.846c3.319,6.381,13.149,28.977,12.383,35.232c-1.146,9.355-25.434,31.915-25.434,31.915
				l-7.998-6.402l14.921-26.406c0,0-11.489-20.042-12.511-28.213C549.064,211.727,554.797,207.088,558.241,206.924z"/>
			<path d="M561.546,171.133l-0.29,8.27c0,0-10.15,15.38-14.15,10.13c-1.09-1.44-1.38-2.92-1.23-4.32
				c4.86,0.22,10.12-10.63,4.35-12.12c-2.44-0.63-4.82,1.51-6.17,4.16c-0.64-0.51-1.12-1.25-1.28-2.29c-0.67-4.41,1.25-6.7,1.25-6.7
				s-3.07,1.43-4.95,0c-1.88-1.44-1.35-3.64-1.35-3.64s-4.62,3.16-9.02,1.15c-4.41-2.01-3.67-6.04-3.67-6.04l2.33-6.12
				c0,0,3.44-0.77,6.6-1.34c3.16-0.58,4.22-0.1,7.57,0.28c3.35,0.39,3.73,0.67,8.3,1.73c4.57,1.05,1.56,0.57,8.83,8.14
				C565.946,169.983,561.546,171.133,561.546,171.133z"/>
			<polygon points="545.753,272.493 558.264,282.195 555.832,284.287 543.943,275.533 			"/>
			<polygon points="531.357,310.678 528.679,296.301 523.572,294.642 527.72,297.035 530.141,310.054 			"/>
		</g>
		<g>

				<linearGradient id="SVGID_00000011007964467153808550000017161577523967097475_" gradientUnits="userSpaceOnUse" x1="579.5291" y1="370.643" x2="579.5291" y2="421.133">
				<stop  offset="0" style="stop-color:#E4816F"/>
				<stop  offset="1" style="stop-color:#E25E52"/>
			</linearGradient>
			<path style="fill:url(#SVGID_00000011007964467153808550000017161577523967097475_);" d="M585.016,390.193
				c-1.14,2.97-2.66,6.14-4.14,9.22c-3.67,7.63-7.46,15.53-5.91,21.2l-1.93,0.52c-1.75-6.39,2.21-14.62,6.04-22.59
				c1.46-3.04,2.96-6.17,4.07-9.07c2.18-5.66,1.63-10.84-1.32-14.46c-0.01-0.01-0.01-0.01-0.01-0.01l-2.01-4.36
				C586.076,374.543,588.126,382.073,585.016,390.193z"/>

				<linearGradient id="SVGID_00000039842969685923303700000003005769311117947789_" gradientUnits="userSpaceOnUse" x1="527.2655" y1="324.813" x2="527.2655" y2="366.103">
				<stop  offset="0" style="stop-color:#E4816F"/>
				<stop  offset="1" style="stop-color:#E25E52"/>
			</linearGradient>
			<path style="fill:url(#SVGID_00000039842969685923303700000003005769311117947789_);" d="M533.716,342.733
				c-20.5,4.39-43.73,9.37-45.88,17.83c-0.19,0.76-0.24,1.47-0.14,2.12c-0.2,1.15-0.4,2.29-0.59,3.42
				c-1.38-1.71-1.78-3.74-1.21-6.03c2.45-9.66,25.3-14.56,47.4-19.3c16.18-3.46,34.51-7.39,33.55-12.13
				c-0.07-0.32-0.21-0.63-0.42-0.91l-0.44-2.92c1.59,0.89,2.54,2.05,2.82,3.43C570.166,334.923,554.076,338.373,533.716,342.733z"/>

				<linearGradient id="SVGID_00000083776694826635703980000007083160689653101208_" gradientUnits="userSpaceOnUse" x1="529.6099" y1="288.063" x2="529.6099" y2="317.753">
				<stop  offset="0" style="stop-color:#E4816F"/>
				<stop  offset="1" style="stop-color:#E25E52"/>
			</linearGradient>
			<path style="fill:url(#SVGID_00000083776694826635703980000007083160689653101208_);" d="M534.746,301.093
				c-16.1,2.39-34.35,5.1-37.88,10.53c-0.55,0.84-0.68,1.71-0.42,2.66c0.09,0.3,0.2,0.59,0.35,0.87c-0.18,0.86-0.36,1.73-0.54,2.6
				c-0.85-0.86-1.43-1.85-1.73-2.93c-0.42-1.51-0.2-2.96,0.66-4.28c4.02-6.2,21.94-8.85,39.27-11.42
				c12.89-1.91,28.92-4.29,28.44-7.62c-0.02-0.15-0.18-0.39-0.53-0.7c-0.14-0.89-0.31-1.81-0.52-2.74c1.87,1.01,2.86,2.05,3.02,3.15
				C565.606,296.273,554.486,298.173,534.746,301.093z"/>

				<linearGradient id="SVGID_00000066473698186810537190000010084375371485820594_" gradientUnits="userSpaceOnUse" x1="526.4998" y1="269.4513" x2="526.4998" y2="280.653">
				<stop  offset="0" style="stop-color:#E4816F"/>
				<stop  offset="1" style="stop-color:#E25E52"/>
			</linearGradient>
			<path style="fill:url(#SVGID_00000066473698186810537190000010084375371485820594_);" d="M550.506,269.503l-1.15,2.03
				c-4.51,0.11-9.31,0.04-13.99-0.01c-13.95-0.18-28.38-0.36-30.45,4.06c-0.52,1.1-0.57,2.01-0.12,2.82
				c-0.24,0.7-0.48,1.45-0.73,2.25c-2.1-1.99-1.74-4.25-0.96-5.92c2.62-5.58,16.37-5.41,32.29-5.21
				C540.466,269.583,545.706,269.653,550.506,269.503z"/>

				<linearGradient id="SVGID_00000057119815256523355170000003867885813811140006_" gradientUnits="userSpaceOnUse" x1="566.279" y1="243.523" x2="566.279" y2="269.863">
				<stop  offset="0" style="stop-color:#E4816F"/>
				<stop  offset="1" style="stop-color:#E25E52"/>
			</linearGradient>
			<path style="fill:url(#SVGID_00000057119815256523355170000003867885813811140006_);" d="M572.746,266.243
				c-0.65,1.55-2.86,2.86-6.06,3.62c0.97-1.04,1.95-2.12,2.93-3.22c0.01,0,0.01-0.01,0.02-0.01c0.77-0.46,1.16-0.9,1.27-1.17
				c1.38-3.24-1.94-6.47-5.46-9.89c-3.43-3.33-6.97-6.77-5.95-10.59c0.14-0.52,0.33-1.01,0.57-1.46c0.48,0.9,0.92,1.71,1.29,2.37
				c-0.36,2.59,2.49,5.34,5.48,8.25C570.686,257.873,574.656,261.743,572.746,266.243z"/>

				<linearGradient id="SVGID_00000173860411613155632470000008538937499846665110_" gradientUnits="userSpaceOnUse" x1="526.1605" y1="211.633" x2="526.1605" y2="236.153">
				<stop  offset="0" style="stop-color:#E4816F"/>
				<stop  offset="1" style="stop-color:#E25E52"/>
			</linearGradient>
			<path style="fill:url(#SVGID_00000173860411613155632470000008538937499846665110_);" d="M580.046,233.543
				c-0.25,1-0.85,1.86-1.86,2.61c-0.24-0.66-0.48-1.34-0.72-2.02c0.33-0.34,0.54-0.69,0.64-1.07c0.07-0.3,0.02-0.53-0.18-0.78
				c-2.69-3.47-22.61-3.66-41.88-3.84c-30.29-0.28-61.61-0.57-63.76-11c-0.39-1.88,0.37-3.94,2.17-5.81
				c-0.03,1.2-0.05,2.41-0.03,3.61c-0.21,0.56-0.31,1.18-0.18,1.8c1.82,8.85,35.09,9.16,61.82,9.4c24.9,0.23,40.32,0.58,43.44,4.61
				C580.076,231.783,580.266,232.643,580.046,233.543z"/>

				<linearGradient id="SVGID_00000077315142398076197690000005973735775314024612_" gradientUnits="userSpaceOnUse" x1="478.3681" y1="166.023" x2="478.3681" y2="203.863">
				<stop  offset="0" style="stop-color:#E4816F"/>
				<stop  offset="1" style="stop-color:#E25E52"/>
			</linearGradient>
			<path style="fill:url(#SVGID_00000077315142398076197690000005973735775314024612_);" d="M490.486,201.613
				c-0.26,0.77-0.7,1.53-1.32,2.25c-0.19-1.01-0.37-2-0.55-2.95c0.93-2.85-2.61-4.55-8.47-7.08c-5.02-2.16-10.69-4.61-13.11-9.01
				c-1.31-2.37-1.43-4.77-0.38-7.13c2.23-4.99,9.6-8.95,16.5-11.67c-1.28,1.29-2.29,2.43-2.65,3.13c-0.03,0.06-0.06,0.13-0.1,0.2
				c-5.35,2.42-10.3,5.52-11.92,9.16c-0.8,1.77-0.7,3.53,0.3,5.35c2.09,3.79,7.43,6.1,12.15,8.13
				C486.696,194.483,492.136,196.833,490.486,201.613z"/>
		</g>
	</g>
	<g>
		<g>

				<linearGradient id="SVGID_00000157294724286157834350000017989201191229197472_" gradientUnits="userSpaceOnUse" x1="256.5576" y1="211.7746" x2="210.2168" y2="418.2007">
				<stop  offset="0" style="stop-color:#E4816F"/>
				<stop  offset="1" style="stop-color:#E25E52"/>
			</linearGradient>
			<path style="fill:url(#SVGID_00000157294724286157834350000017989201191229197472_);" d="M204.459,398.841l-0.107-1.998
				c1.361-0.072,2.761-0.152,4.195-0.241c6.095-0.379,11.569-0.723,16.834-1.099l0.143,1.994
				c-5.273,0.377-10.752,0.722-16.853,1.101C207.23,398.686,205.827,398.767,204.459,398.841z"/>

				<linearGradient id="SVGID_00000154387512023385720540000003201002520731343752_" gradientUnits="userSpaceOnUse" x1="248.7663" y1="210.0252" x2="202.4255" y2="416.4518">
				<stop  offset="0" style="stop-color:#E4816F"/>
				<stop  offset="1" style="stop-color:#E25E52"/>
			</linearGradient>
			<path style="fill:url(#SVGID_00000154387512023385720540000003201002520731343752_);" d="M214.903,338.497l-0.346-1.97
				c2.35-0.414,4.724-0.814,7.079-1.212c1.407-0.238,2.809-0.474,4.193-0.712l0.338,1.972c-1.387,0.237-2.789,0.474-4.198,0.712
				C219.619,337.685,217.249,338.085,214.903,338.497z"/>
		</g>
		<g id="XMLID_263_">

				<linearGradient id="SVGID_00000138555185074191959570000005748821083630663338_" gradientUnits="userSpaceOnUse" x1="245.4172" y1="416.6451" x2="245.4172" y2="442.4486">
				<stop  offset="0" style="stop-color:#FFCBCA"/>
				<stop  offset="1" style="stop-color:#E994A8"/>
			</linearGradient>
			<path style="fill:url(#SVGID_00000138555185074191959570000005748821083630663338_);" d="M234.715,433.601l-0.733-18.513
				l21.271-0.383l1.6,27.191C256.853,441.897,237.363,443.401,234.715,433.601z"/>

				<linearGradient id="SVGID_00000029729384335355577920000008043196146977492353_" gradientUnits="userSpaceOnUse" x1="178.6931" y1="413.8482" x2="178.6931" y2="443.205">
				<stop  offset="0" style="stop-color:#FFCBCA"/>
				<stop  offset="1" style="stop-color:#E994A8"/>
			</linearGradient>
			<path style="fill:url(#SVGID_00000029729384335355577920000008043196146977492353_);" d="M165.109,433.601l5.969-21.96
				c0,0,21.702,4.851,21.191,4.851c-0.511,0-7.787,26.17-7.787,26.17S165.012,443.306,165.109,433.601z"/>

				<linearGradient id="SVGID_00000024720447489281246810000005226111073051800201_" gradientUnits="userSpaceOnUse" x1="206.4133" y1="483.1367" x2="222.4983" y2="311.563">
				<stop  offset="0" style="stop-color:#8AB9FD"/>
				<stop  offset="1" style="stop-color:#0056E9"/>
			</linearGradient>
			<path style="fill:url(#SVGID_00000024720447489281246810000005226111073051800201_);" d="M255.46,355.854
				c0,0-7.178-63.511-8.425-70.596c-1.247-7.085-4.174-12.323-4.174-12.323c-4.442-1.948-48.212-1.633-48.212-1.633
				c-6.546,3.682-7.146,26.43-6.913,35.594c-0.67,11.968-1.172,31.02-2.585,47.872c-6.702,11.394-18.096,66.638-18.096,66.638
				c5.489,2.872,20.425,6.935,31.596,7.358c0,0,14.499-61.066,16.37-69.25c1.715-7.459,2.656-40.081,4.283-54.538
				c0,0,0.73-0.379,1.496-0.826c0.419,8.918,3.112,42.801,4.225,53.877c-1.159,8.846-1.062,69.417-1.062,69.417
				c20.262,3.344,32.888-0.791,32.888-0.791L255.46,355.854z"/>
			<path d="M168.402,415.053c6.91,1.88,20.63,5.4,31.88,6.86c-1.01,4.23-1.63,6.85-1.63,6.85c-11.17-0.42-26.11-4.48-31.6-7.36
				C167.052,421.403,167.552,418.983,168.402,415.053z"/>
			<path d="M256.852,426.653c0,0-12.63,4.14-32.89,0.79c0,0,0-2.73,0-7.12c0,0,19.28,2.1,32.77,0.24L256.852,426.653z"/>
			<path d="M207.212,271.293c-0.11,1.62-1.75,20.61-18.69,23.54c-0.2,0.03-0.39,0.08-0.59,0.13c0.57-9.87,2.27-21.16,6.72-23.66
				C194.652,271.303,200.032,271.263,207.212,271.293z"/>

				<linearGradient id="XMLID_00000072267799931810123840000010159464829987208321_" gradientUnits="userSpaceOnUse" x1="267.7754" y1="157.964" x2="256.6379" y2="260.2275">
				<stop  offset="0" style="stop-color:#FFCBCA"/>
				<stop  offset="1" style="stop-color:#E994A8"/>
			</linearGradient>
			<path id="XMLID_385_" style="fill:url(#XMLID_00000072267799931810123840000010159464829987208321_);" d="M252.858,227.679
				l4.467,23.012c5.526-4.48,14.111-11.172,19.91-14.41l4.523,2.66c0,0-18.861,33.296-31.426,28.21
				c-9.218-3.731-13.68-32.777-13.68-32.777L252.858,227.679z"/>

				<linearGradient id="XMLID_00000002351732452732526830000008055816845496633273_" gradientUnits="userSpaceOnUse" x1="235.5055" y1="305.9298" x2="240.8672" y2="236.483">
				<stop  offset="0" style="stop-color:#E6832C"/>
				<stop  offset="1" style="stop-color:#E9A347"/>
			</linearGradient>
			<path id="XMLID_509_" style="fill:url(#XMLID_00000002351732452732526830000008055816845496633273_);" d="M258.051,241.32
				c0,0-9.324,6.567-20.739,5.384l-3.037-12.392l-2.256-9.163l-5.453-30.83c0,0,21.427,6.776,23.788,12.201
				C253.231,213.13,255.811,229.807,258.051,241.32z"/>

				<linearGradient id="SVGID_00000039116488156885557110000007461945423544698273_" gradientUnits="userSpaceOnUse" x1="208.681" y1="303.8589" x2="214.0426" y2="234.4121">
				<stop  offset="0" style="stop-color:#E6832C"/>
				<stop  offset="1" style="stop-color:#E9A347"/>
			</linearGradient>
			<path style="fill:url(#SVGID_00000039116488156885557110000007461945423544698273_);" d="M245.409,230.173
				c-0.693,4.586-1.896,21.861-2.415,35.741c-0.092,2.477,1.615,6.149-0.133,7.022c-16.296,2.574-42.186,0.83-49.738-0.403
				c-2.577-1.23,0.909-7.954,1.031-9.829c0.713-11.272,0.216-26.977-0.945-30.411c-2.915-8.612-5.687-15.562-4.525-22.452
				c1.325-2.283-6.277-6.531-4.356-7.396c10.694-4.818,23.556-7.657,26.328-8.125h15.909c4.8,2.446,10.823,5.483,15.022,9.743
				C245.032,207.558,247.631,215.446,245.409,230.173z"/>

				<linearGradient id="XMLID_00000065778444220201807000000008578263031457199505_" gradientUnits="userSpaceOnUse" x1="229.7932" y1="194.7992" x2="164.1125" y2="244.9693">
				<stop  offset="0" style="stop-color:#FFCBCA"/>
				<stop  offset="1" style="stop-color:#E994A8"/>
			</linearGradient>
			<path id="XMLID_456_" style="fill:url(#XMLID_00000065778444220201807000000008578263031457199505_);" d="M192.176,225.095
				c0,0-4.045,10.173-8.327,18.362c-1.466,2.803-4.325,11.579-5.512,12.363c-3.812,2.519-10.335-3.045-12.91-5.541
				c-0.017-0.204,0.926-6.057,2.98-12.909c3.135-10.458,7.858-23.403,7.858-23.403L192.176,225.095z"/>
			<path d="M192.172,225.093c0,0-4.04,10.18-8.32,18.36c-1.47,2.81-4.33,11.58-5.51,12.37c-0.45,0.3-0.93,0.48-1.44,0.57
				c-2.84-2.34-4.81-4.47-4.29-5.6c1.53-3.35,10.15-14.17,10.15-14.17l4.4-13.37l-14.56,1.14c2.01-5.88,3.67-10.43,3.67-10.43
				L192.172,225.093z"/>

				<linearGradient id="XMLID_00000173129975366602644560000015773614666900069303_" gradientUnits="userSpaceOnUse" x1="177.7796" y1="301.4731" x2="183.1412" y2="232.0264">
				<stop  offset="0" style="stop-color:#E6832C"/>
				<stop  offset="1" style="stop-color:#E9A347"/>
			</linearGradient>
			<path id="XMLID_455_" style="fill:url(#XMLID_00000173129975366602644560000015773614666900069303_);" d="M194.604,205.984
				c-2.081-2.718-9.425-6.822-13.668-0.86c-5.71,8.024-12.474,29.326-12.474,29.326s8.87,7.086,23.714,7.341
				c0,0,5.118-13.439,6.284-20.485C198.46,221.306,198.354,210.882,194.604,205.984z"/>

				<linearGradient id="SVGID_00000109026439987577353600000000050777738028635284_" gradientUnits="userSpaceOnUse" x1="239.2231" y1="207.0895" x2="173.5183" y2="257.2779">
				<stop  offset="0" style="stop-color:#FFCBCA"/>
				<stop  offset="1" style="stop-color:#E994A8"/>
			</linearGradient>
			<path style="fill:url(#SVGID_00000109026439987577353600000000050777738028635284_);" d="M222.962,212.099
				c-1.338-0.804-4.13,2.03-7.277,3.918c-3.146,1.888-7.677,2.391-8.851,4.657c-1.174,2.266-5.956,11.299-5.956,11.299v0
				c-15.39,8.867-35.449,18.305-35.449,18.305c-1.62,5.459,0.284,16.542,10.881,13.165c13.917-4.434,25.598-18.126,29.675-23.428
				c0.27,0.031,0.552,0.03,0.849-0.009c4.678-0.616,7.369-4.405,7.557-4.447c0.051,0.267,0.245,1.171,0.557,1.718
				c0.309,0.542,1.242,0.732,1.556,0.325c0.642-0.834,2.328-3.902,2.643-5.538c0.315-1.636-0.503-2.391-0.566-4.028
				c-0.063-1.636-1.447-2.643-1.447-3.524c0-0.881-1.573-3.22-1.573-3.22s3.398-2.633,4.909-3.905
				C221.979,216.116,224.654,213.116,222.962,212.099z"/>

				<linearGradient id="XMLID_00000088101788124924381130000013231892689635828134_" gradientUnits="userSpaceOnUse" x1="300.1873" y1="281.9573" x2="266.7404" y2="238.4253">
				<stop  offset="0" style="stop-color:#8AB9FD"/>
				<stop  offset="1" style="stop-color:#0056E9"/>
			</linearGradient>

				<path id="XMLID_00000072994295050609353940000015605769466173432454_" style="fill:url(#XMLID_00000088101788124924381130000013231892689635828134_);" d="
				M236.822,254.729l30.491-0.91c1.662,0,3.193-0.902,3.999-2.356l19.79-35.717c0.184-0.331,1.285-0.123,1.203-0.45
				c-0.238-0.953-1.781-2.181-2.753-2.181h-31.611c-1.662,0-3.193,0.902-3.999,2.356l-19.791,35.717
				C233.499,252.37,235.472,254.729,236.822,254.729z"/>
			<path id="XMLID_240_" d="M236.756,254.729h31.61c1.662,0,3.193-0.902,3.999-2.356l19.79-35.717c0.654-1.181-0.2-2.631-1.55-2.631
				h-31.61c-1.662,0-3.193,0.902-3.999,2.356l-19.791,35.717C234.552,253.279,235.406,254.729,236.756,254.729z"/>

				<linearGradient id="XMLID_00000025410375277022546120000010726341765635337610_" gradientUnits="userSpaceOnUse" x1="287.1804" y1="159.4598" x2="275.9464" y2="262.609">
				<stop  offset="0" style="stop-color:#FFCBCA"/>
				<stop  offset="1" style="stop-color:#E994A8"/>
			</linearGradient>
			<path id="XMLID_382_" style="fill:url(#XMLID_00000025410375277022546120000010726341765635337610_);" d="M270.347,233.514
				c-1.682-1.121-0.231-2.558,1.575-2.685c0.743-0.052,1.803,0.068,2.884,0.249c-0.004-0.001-0.009-0.002-0.013-0.004
				c-4.055-1.09-2.288-3.236-0.066-3.392c2.222-0.156,7.263,1.216,7.263,1.216l3.815-0.779l2.698-4.869c0,0,2.979,8.072,0.658,9.607
				c-0.4,1.009-1.102,2.68-1.478,2.962c-0.173,0.129-0.469,0.224-0.787,0.296c-0.832,1.386-1.838,2.761-2.615,2.88
				c-0.211,0.032-0.431,0.05-0.648,0.073c-0.531,0.856-1.162,1.514-1.881,1.624c-2.343,0.359-5.283-0.048-5.283-0.048
				s-2.599-0.833-5.97-1.738c-2.694-0.724-2.282-1.996-1.071-2.549C267.312,235.283,268.585,233.799,270.347,233.514z"/>
			<g>

					<linearGradient id="SVGID_00000058584755052647202270000003846307405033651872_" gradientUnits="userSpaceOnUse" x1="278.6626" y1="231.4385" x2="275.5209" y2="245.4334">
					<stop  offset="0" style="stop-color:#FFCBCA"/>
					<stop  offset="1" style="stop-color:#E994A8"/>
				</linearGradient>
				<path style="fill:url(#SVGID_00000058584755052647202270000003846307405033651872_);" d="M284.642,232.773
					c0,0-1.42,0.3-4.42,0.03c-1.23-0.11-6.15-1.53-7.7-1.98c0.62,0.01,1.38,0.11,2.16,0.23c0.03,0,0.05,0.01,0.08,0.01
					c0.01,0.01,0.02,0.01,0.03,0.01c0,0,4.38,1.19,5.45,1.37C281.762,232.693,284.642,232.773,284.642,232.773z"/>

					<linearGradient id="SVGID_00000137117814320395984000000006419528259912786072_" gradientUnits="userSpaceOnUse" x1="276.2173" y1="234.6214" x2="273.7415" y2="245.6497">
					<stop  offset="0" style="stop-color:#FFCBCA"/>
					<stop  offset="1" style="stop-color:#E994A8"/>
				</linearGradient>
				<path style="fill:url(#SVGID_00000137117814320395984000000006419528259912786072_);" d="M282.622,236.053
					c0,0-1.41,0.23-4.39-0.18c-1.8-0.26-6.83-1.7-8.53-2.19c0.21-0.08,0.42-0.13,0.65-0.17c0,0,6.64,1.8,7.88,2.05
					C279.472,235.823,282.622,236.053,282.622,236.053z"/>

					<linearGradient id="SVGID_00000128477155673048095060000006749197563406252214_" gradientUnits="userSpaceOnUse" x1="275.2267" y1="237.3296" x2="272.3603" y2="250.0981">
					<stop  offset="0" style="stop-color:#FFCBCA"/>
					<stop  offset="1" style="stop-color:#E994A8"/>
				</linearGradient>
				<path style="fill:url(#SVGID_00000128477155673048095060000006749197563406252214_);" d="M281.332,238.693
					c0,0-1.79,0.38-4.74-0.11c-1.56-0.26-5.7-1.4-7.62-1.95c0.13-0.11,0.28-0.2,0.45-0.28c0,0,5.76,1.61,7.2,1.9
					C278.052,238.533,281.332,238.693,281.332,238.693z"/>
			</g>
			<g id="XMLID_00000092446099098205746160000005476457589391975102_">
				<path id="XMLID_468_" d="M238.601,153.363l0.034,3.179l-3.573,3.803l0.016,5.288c0,0-0.426,4.776,3.156,3.667
					c2.12-0.656,2.503-4.769,2.467-8.024C244.035,155.637,238.601,153.363,238.601,153.363z"/>

					<linearGradient id="XMLID_00000090259916870687067780000003328068761394515885_" gradientUnits="userSpaceOnUse" x1="223.8929" y1="152.5673" x2="212.6589" y2="255.7164">
					<stop  offset="0" style="stop-color:#FFCBCA"/>
					<stop  offset="1" style="stop-color:#E994A8"/>
				</linearGradient>

					<path id="XMLID_00000137126571735584199460000013898376830775765141_" style="fill:url(#XMLID_00000090259916870687067780000003328068761394515885_);" d="
					M208.971,194.647c1.458-9.983,2.616-18.99,2.616-18.99l15.597,11.353c0.451,2.088,2.202,10.053,2.202,10.053
					s-2.82,3.624-8.712,3.606C212.518,200.643,208.971,194.647,208.971,194.647z"/>
				<path d="M227.962,190.573c-9.75-2.83-12.12-9.65-12.68-12.22l11.9,8.66C227.332,187.713,227.632,189.073,227.962,190.573z"/>

					<linearGradient id="XMLID_00000040568074332592128520000015531596421375727232_" gradientUnits="userSpaceOnUse" x1="225.6668" y1="152.7605" x2="214.4328" y2="255.9094">
					<stop  offset="0" style="stop-color:#FFCBCA"/>
					<stop  offset="1" style="stop-color:#E994A8"/>
				</linearGradient>
				<path id="XMLID_465_" style="fill:url(#XMLID_00000040568074332592128520000015531596421375727232_);" d="M238.783,164.157
					c0,0,2.006,18.618-4.863,22.006c-3.769,1.859-11.733,1.144-16.896-3.121c-2.264-1.872-4.592-4.72-5.651-7.298
					c-1.721-4.186-3.383-11.681-1.707-16.654C212.054,152.007,236.603,147.623,238.783,164.157z"/>
				<path d="M239.132,159.247c-1.59,2.34-4.21,2.99-10.93,1.5c-0.79,0.63-2.47,3.17-8.71,2.74c0.367,2.204,0.128,6.943-3.24,7.11
					c-0.51-1.21-1.54-2.64-3.44-2.16c-2.94,0.75-2.39,6.32-0.33,8.75c-0.869,2.166-1.048,2.69-1.738,4.821
					c-1.33-1.24-1.944-3.248-1.633-5.121c-2.37-1.335-3.183-3.345-2.73-4.97c-2.827-1.583-3.805-6.418-0.9-8.5
					c-4.053-4.859-1.373-12.279,4.88-11.66c-0.556-2.008,2.891-7.705,8.61-5.08c1.318-2.481,4.119-3.774,6.776-3.773
					c2.945,0.001,5.601,1.053,7.334,3.693c4.49-0.534,7.506,3.679,6.24,7.73C239.322,154.346,240.832,156.747,239.132,159.247z"/>
			</g>
			<g>

					<linearGradient id="SVGID_00000168116146725418348300000017122219341642426500_" gradientUnits="userSpaceOnUse" x1="3500.7632" y1="431.465" x2="3500.7632" y2="454.9795" gradientTransform="matrix(-1 0 0 1 3758.6987 0)">
					<stop  offset="0" style="stop-color:#8AB9FD"/>
					<stop  offset="1" style="stop-color:#0056E9"/>
				</linearGradient>
				<path style="fill:url(#SVGID_00000168116146725418348300000017122219341642426500_);" d="M234.715,433.601
					c0,0-2.231,0.244-3.252,4.334c-1.021,4.091-1.299,11.352-1.299,11.352s-1.43,2.58-1.43,6.218h58.371
					c0,0,0.777-10.801-5.329-15.219c-7.085-5.127-21.236-2.821-21.236-2.821s-1.735-3.271-3.075-4.132
					c-1.34-0.862-4.029,0.709-6.615,4.507C248.457,438.797,237.367,437.744,234.715,433.601z"/>

					<linearGradient id="SVGID_00000050661557686305276620000002161169108034435006_" gradientUnits="userSpaceOnUse" x1="3500.7644" y1="447.4333" x2="3500.7644" y2="455.1529" gradientTransform="matrix(-1 0 0 1 3758.6987 0)">
					<stop  offset="0" style="stop-color:#8AB9FD"/>
					<stop  offset="0.1912" style="stop-color:#70A6F9"/>
					<stop  offset="1" style="stop-color:#0056E9"/>
				</linearGradient>
				<path style="fill:url(#SVGID_00000050661557686305276620000002161169108034435006_);" d="M228.733,455.506h58.37
					c0,0,0.2-2.77-0.39-6.08h-3.18c-0.44,0-1.21,0.65-1.85,1.28c-0.73,0.71-1.7,1.12-2.73,1.13c-7.63,0.07-38.86,0.32-40.12-0.02
					c-1.43-0.38-2.3-1.86-4.35-2.53c-2.06-0.66-4.32,0-4.32,0S228.733,451.866,228.733,455.506z"/>

					<linearGradient id="SVGID_00000075863603519813035610000009855149738262173882_" gradientUnits="userSpaceOnUse" x1="3500.8008" y1="435.594" x2="3500.8008" y2="438.7744" gradientTransform="matrix(-1 0 0 1 3758.6987 0)">
					<stop  offset="0" style="stop-color:#8AB9FD"/>
					<stop  offset="0.1912" style="stop-color:#70A6F9"/>
					<stop  offset="1" style="stop-color:#0056E9"/>
				</linearGradient>
				<path style="fill:url(#SVGID_00000075863603519813035610000009855149738262173882_);" d="M255.253,438.846
					c2.3-0.77,5.29-1.38,5.29-1.38s-0.4-0.77-0.98-1.65C256.593,437.136,255.253,438.846,255.253,438.846z"/>
			</g>
			<g>

					<linearGradient id="SVGID_00000069368027945225417960000002270783010400951231_" gradientUnits="userSpaceOnUse" x1="3570.3696" y1="431.465" x2="3570.3696" y2="454.9795" gradientTransform="matrix(-1 0 0 1 3758.6987 0)">
					<stop  offset="0" style="stop-color:#8AB9FD"/>
					<stop  offset="1" style="stop-color:#0056E9"/>
				</linearGradient>
				<path style="fill:url(#SVGID_00000069368027945225417960000002270783010400951231_);" d="M165.109,433.601
					c0,0-2.231,0.244-3.253,4.334c-1.021,4.091-1.299,11.352-1.299,11.352s-1.43,2.58-1.43,6.218h58.371
					c0,0,0.777-10.801-5.329-15.219c-7.085-5.127-21.236-2.821-21.236-2.821s-1.735-3.271-3.075-4.132
					c-1.34-0.862-4.03,0.709-6.615,4.507C178.851,438.797,167.76,437.744,165.109,433.601z"/>

					<linearGradient id="SVGID_00000147211135295051121650000002425043135915867540_" gradientUnits="userSpaceOnUse" x1="3570.3708" y1="447.4333" x2="3570.3708" y2="455.1529" gradientTransform="matrix(-1 0 0 1 3758.6987 0)">
					<stop  offset="0" style="stop-color:#8AB9FD"/>
					<stop  offset="0.1912" style="stop-color:#70A6F9"/>
					<stop  offset="1" style="stop-color:#0056E9"/>
				</linearGradient>
				<path style="fill:url(#SVGID_00000147211135295051121650000002425043135915867540_);" d="M159.127,455.506h58.37
					c0,0,0.2-2.77-0.39-6.08h-3.18c-0.44,0-1.21,0.65-1.85,1.28c-0.73,0.71-1.7,1.12-2.73,1.13c-7.63,0.07-38.86,0.32-40.12-0.02
					c-1.43-0.38-2.3-1.86-4.35-2.53c-2.06-0.66-4.32,0-4.32,0S159.127,451.866,159.127,455.506z"/>

					<linearGradient id="SVGID_00000115490710232881653490000018311621062894836394_" gradientUnits="userSpaceOnUse" x1="3570.4072" y1="435.594" x2="3570.4072" y2="438.7744" gradientTransform="matrix(-1 0 0 1 3758.6987 0)">
					<stop  offset="0" style="stop-color:#8AB9FD"/>
					<stop  offset="0.1912" style="stop-color:#70A6F9"/>
					<stop  offset="1" style="stop-color:#0056E9"/>
				</linearGradient>
				<path style="fill:url(#SVGID_00000115490710232881653490000018311621062894836394_);" d="M185.647,438.846
					c2.3-0.77,5.29-1.38,5.29-1.38s-0.4-0.77-0.98-1.65C186.987,437.136,185.647,438.846,185.647,438.846z"/>
			</g>
		</g>
		<g>

				<linearGradient id="SVGID_00000013171113270971171700000003561115505432229776_" gradientUnits="userSpaceOnUse" x1="220.1252" y1="203.5965" x2="173.7846" y2="410.0221">
				<stop  offset="0" style="stop-color:#E4816F"/>
				<stop  offset="1" style="stop-color:#E25E52"/>
			</linearGradient>
			<path style="fill:url(#SVGID_00000013171113270971171700000003561115505432229776_);" d="M175.232,434.903l-1.92-0.57
				c1.69-5.67-0.92-11.12-3.22-15.94c-1.88-3.94-3.66-7.66-2.79-10.96c0.65-2.48,2-4.4,4.11-5.83c-0.28,1.18-0.54,2.32-0.78,3.43
				c-0.65,0.83-1.11,1.8-1.4,2.91c-0.68,2.59,0.87,5.84,2.67,9.59C174.352,422.673,177.132,428.493,175.232,434.903z"/>

				<linearGradient id="SVGID_00000019667014830353473400000005813481221981205411_" gradientUnits="userSpaceOnUse" x1="256.4102" y1="211.7426" x2="210.0698" y2="418.1674">
				<stop  offset="0" style="stop-color:#E4816F"/>
				<stop  offset="1" style="stop-color:#E25E52"/>
			</linearGradient>
			<path style="fill:url(#SVGID_00000019667014830353473400000005813481221981205411_);" d="M259.122,388.463
				c-0.27,1.85-1.3,3.44-2.93,4.59l-0.05-2.66c0.54-0.65,0.88-1.41,1-2.22c0.29-1.96-0.66-4.12-2.62-5.93
				c-3.98-3.67-16.46-7.15-29.68-10.83c-21.09-5.88-42.9-11.96-41.82-21.5c0.19-1.67,1.13-3.21,2.81-4.6
				c-0.06,1.06-0.13,2.12-0.21,3.17c-0.35,0.54-0.55,1.09-0.61,1.65c-0.89,7.85,21.99,14.23,40.37,19.35
				c13.45,3.75,26.16,7.29,30.5,11.3C258.332,383.033,259.512,385.833,259.122,388.463z"/>

				<linearGradient id="SVGID_00000072999881658713242570000003499261873017840060_" gradientUnits="userSpaceOnUse" x1="243.6281" y1="208.8732" x2="197.2877" y2="415.2979">
				<stop  offset="0" style="stop-color:#E4816F"/>
				<stop  offset="1" style="stop-color:#E25E52"/>
			</linearGradient>
			<path style="fill:url(#SVGID_00000072999881658713242570000003499261873017840060_);" d="M252.402,329.163
				c-0.1-0.85-0.2-1.71-0.3-2.57c0.47-0.72,0.38-1.26,0.33-1.52c-1.09-6.16-16.39-7.32-31.18-8.45
				c-17.63-1.34-35.85-2.72-35.85-12.79c0-2.11,0.8-4,2.4-5.63c-0.05,1.32-0.08,2.59-0.09,3.77c-0.21,0.59-0.31,1.21-0.31,1.86
				c0,8.21,17.28,9.53,34,10.8c16.27,1.23,31.63,2.4,33,10.09C254.692,326.353,254.022,327.843,252.402,329.163z"/>

				<linearGradient id="SVGID_00000012441588497758595060000010909145651083039879_" gradientUnits="userSpaceOnUse" x1="229.2346" y1="205.6416" x2="182.8941" y2="412.0668">
				<stop  offset="0" style="stop-color:#E4816F"/>
				<stop  offset="1" style="stop-color:#E25E52"/>
			</linearGradient>
			<path style="fill:url(#SVGID_00000012441588497758595060000010909145651083039879_);" d="M246.142,281.303l-0.01-0.01
				c-0.32-1.13-0.66-2.17-0.99-3.11c0.31-1.34,0.35-3-0.5-4.59c-1.53-2.87-5.51-4.73-11.84-5.53c-5.63-0.71-11.85-0.55-17.86-0.39
				c-12.48,0.32-24.26,0.63-31.61-6.19c-0.25-0.23-0.49-0.47-0.72-0.71c0.61-0.32,1.22-0.66,1.82-1.01
				c0.08,0.08,0.17,0.17,0.26,0.25c6.75,6.27,18.14,5.97,30.19,5.66c6.09-0.16,12.39-0.33,18.17,0.4c7.01,0.89,11.5,3.1,13.36,6.58
				C248.302,276.193,246.852,279.883,246.142,281.303z"/>

				<linearGradient id="SVGID_00000057111271693661055030000000327044316024268948_" gradientUnits="userSpaceOnUse" x1="204.7156" y1="200.1369" x2="158.3749" y2="406.5631">
				<stop  offset="0" style="stop-color:#E4816F"/>
				<stop  offset="1" style="stop-color:#E25E52"/>
			</linearGradient>
			<path style="fill:url(#SVGID_00000057111271693661055030000000327044316024268948_);" d="M211.112,238.413
				c-0.43,2.04-1.25,4.33-3.46,5c-2.89,0.89-4.95-0.54-7.13-2.05c-2.61-1.8-5.56-3.85-11.13-3.18c-1.87,0.23-3.76,1.28-5.35,2.89
				c-1.36,0.7-2.68,1.37-3.96,2.02c2.09-3.79,5.59-6.47,9.07-6.89c6.32-0.77,9.75,1.61,12.51,3.52c1.99,1.38,3.44,2.38,5.41,1.78
				c0.7-0.22,1.24-0.83,1.65-1.94C209.622,239.263,210.422,238.863,211.112,238.413z"/>

				<linearGradient id="SVGID_00000029755042963789661450000005328434342762323625_" gradientUnits="userSpaceOnUse" x1="234.4196" y1="206.8034" x2="188.8972" y2="409.5846">
				<stop  offset="0" style="stop-color:#E4816F"/>
				<stop  offset="1" style="stop-color:#E25E52"/>
			</linearGradient>
			<path style="fill:url(#SVGID_00000029755042963789661450000005328434342762323625_);" d="M250.162,222.303l-1.18,2.12
				c-2.96-5.8-7.49-12.43-13.54-15.15c-4.01-1.8-8.3-1.66-12.75,0.42c-2.96,1.39-5.25,3.45-6.91,6.26c-0.03,0.02-0.07,0.04-0.1,0.06
				c-0.88,0.53-1.86,0.95-2.85,1.33c1.92-4.42,4.87-7.52,9.01-9.46c5-2.34,9.85-2.48,14.42-0.43
				C242.442,210.233,247.052,216.533,250.162,222.303z"/>
		</g>
	</g>
	<g>
		<g>

				<linearGradient id="SVGID_00000169532147016630473130000008116524050287524030_" gradientUnits="userSpaceOnUse" x1="413.1553" y1="64.4778" x2="431.3469" y2="84.2013">
				<stop  offset="0" style="stop-color:#E4816F"/>
				<stop  offset="1" style="stop-color:#E25E52"/>
			</linearGradient>
			<path style="fill:url(#SVGID_00000169532147016630473130000008116524050287524030_);" d="M422.256,61.304
				c-7.2,0-13.04,5.84-13.04,13.05c0,7.2,5.84,13.04,13.04,13.04c7.21,0,13.05-5.84,13.05-13.04
				C435.306,67.144,429.466,61.304,422.256,61.304z M422.256,82.394c-4.44,0-8.04-3.6-8.04-8.04c0-4.45,3.6-8.05,8.04-8.05
				c4.45,0,8.05,3.6,8.05,8.05C430.306,78.794,426.706,82.394,422.256,82.394z"/>

				<linearGradient id="SVGID_00000095337488484529163650000008869060151379960742_" gradientUnits="userSpaceOnUse" x1="196.0242" y1="98.1426" x2="204.3957" y2="107.219">
				<stop  offset="0" style="stop-color:#E4816F"/>
				<stop  offset="1" style="stop-color:#E25E52"/>
			</linearGradient>
			<path style="fill:url(#SVGID_00000095337488484529163650000008869060151379960742_);" d="M206.217,102.685
				c0,3.315-2.688,6.003-6.003,6.003c-3.315,0-6.003-2.688-6.003-6.003c0-3.316,2.688-6.003,6.003-6.003
				C203.53,96.682,206.217,99.37,206.217,102.685z"/>

				<linearGradient id="SVGID_00000112623455115900818310000001818126731494473382_" gradientUnits="userSpaceOnUse" x1="156.729" y1="355.0886" x2="157.229" y2="355.0886">
				<stop  offset="0" style="stop-color:#8AB9FD"/>
				<stop  offset="1" style="stop-color:#0056E9"/>
			</linearGradient>
			<path style="fill:url(#SVGID_00000112623455115900818310000001818126731494473382_);" d="M342.538,355.089
				c0,1.375-1.115,2.489-2.489,2.489c-1.375,0-2.489-1.115-2.489-2.489c0-1.375,1.115-2.489,2.489-2.489
				C341.423,352.599,342.538,353.714,342.538,355.089z"/>

				<linearGradient id="SVGID_00000137843975009847018610000009489036931129838985_" gradientUnits="userSpaceOnUse" x1="633.0278" y1="381.6811" x2="623.9108" y2="372.5642">
				<stop  offset="0" style="stop-color:#E6832C"/>
				<stop  offset="1" style="stop-color:#E9A347"/>
			</linearGradient>
			<circle style="fill:url(#SVGID_00000137843975009847018610000009489036931129838985_);" cx="625.977" cy="374.63" r="5.548"/>

				<linearGradient id="SVGID_00000176020357366112144850000000760760071792095889_" gradientUnits="userSpaceOnUse" x1="131.2824" y1="211.6118" x2="153.8782" y2="249.9097">
				<stop  offset="0" style="stop-color:#8AB9FD"/>
				<stop  offset="1" style="stop-color:#0056E9"/>
			</linearGradient>
			<path style="fill:url(#SVGID_00000176020357366112144850000000760760071792095889_);" d="M137.765,210.404
				c-6.74,0-12.19,5.46-12.19,12.19c0,6.74,5.45,12.19,12.19,12.19c6.73,0,12.19-5.45,12.19-12.19
				C149.955,215.865,144.495,210.404,137.765,210.404z M137.765,233.025c-5.76,0-10.43-4.67-10.43-10.43s4.67-10.43,10.43-10.43
				c5.76,0,10.43,4.67,10.43,10.43S143.525,233.025,137.765,233.025z"/>
			<path d="M297.889,100.74c0,1.128-0.915,2.043-2.043,2.043c-1.128,0-2.043-0.914-2.043-2.043c0-1.128,0.914-2.042,2.043-2.042
				C296.974,98.697,297.889,99.612,297.889,100.74z"/>

				<linearGradient id="SVGID_00000077311023891129881880000017976690173976136122_" gradientUnits="userSpaceOnUse" x1="638.6589" y1="276.2964" x2="645.1364" y2="283.3193">
				<stop  offset="0" style="stop-color:#E4816F"/>
				<stop  offset="1" style="stop-color:#E25E52"/>
			</linearGradient>
			<path style="fill:url(#SVGID_00000077311023891129881880000017976690173976136122_);" d="M646.546,279.811
				c0,2.565-2.08,4.645-4.645,4.645c-2.565,0-4.645-2.08-4.645-4.645c0-2.565,2.08-4.645,4.645-4.645
				C644.466,275.166,646.546,277.246,646.546,279.811z"/>
			<path d="M598.065,187.992c0,2.565-2.08,4.645-4.645,4.645c-2.565,0-4.645-2.08-4.645-4.645c0-2.565,2.08-4.645,4.645-4.645
				C595.985,183.347,598.065,185.426,598.065,187.992z"/>

				<linearGradient id="SVGID_00000117661494459033489670000001874175849970629807_" gradientUnits="userSpaceOnUse" x1="610.8578" y1="226.3136" x2="627.8545" y2="226.3136">
				<stop  offset="0" style="stop-color:#8AB9FD"/>
				<stop  offset="1" style="stop-color:#0056E9"/>
			</linearGradient>
			<path style="opacity:0.1;fill:url(#SVGID_00000117661494459033489670000001874175849970629807_);" d="M627.854,226.313
				c0,4.693-3.805,8.499-8.498,8.499c-4.693,0-8.498-3.805-8.498-8.499c0-4.693,3.805-8.498,8.498-8.498
				C624.05,217.815,627.854,221.62,627.854,226.313z"/>

				<linearGradient id="SVGID_00000085232289752878976450000007225840715750631044_" gradientUnits="userSpaceOnUse" x1="156.4223" y1="375.9608" x2="173.419" y2="375.9608">
				<stop  offset="0" style="stop-color:#8AB9FD"/>
				<stop  offset="1" style="stop-color:#0056E9"/>
			</linearGradient>
			<path style="opacity:0.1;fill:url(#SVGID_00000085232289752878976450000007225840715750631044_);" d="M173.419,375.961
				c0,4.694-3.805,8.499-8.498,8.499c-4.693,0-8.498-3.805-8.498-8.499c0-4.693,3.805-8.498,8.498-8.498
				C169.614,367.462,173.419,371.267,173.419,375.961z"/>

				<linearGradient id="SVGID_00000124882768327222178900000008370710884620649662_" gradientUnits="userSpaceOnUse" x1="142.7771" y1="366.103" x2="149.9546" y2="366.103">
				<stop  offset="0" style="stop-color:#8AB9FD"/>
				<stop  offset="1" style="stop-color:#0056E9"/>
			</linearGradient>
			<path style="opacity:0.1;fill:url(#SVGID_00000124882768327222178900000008370710884620649662_);" d="M149.955,366.103
				c0,1.982-1.607,3.589-3.589,3.589c-1.982,0-3.589-1.607-3.589-3.589s1.607-3.589,3.589-3.589
				C148.348,362.514,149.955,364.121,149.955,366.103z"/>

				<linearGradient id="SVGID_00000111887696670143513860000000963537174060678047_" gradientUnits="userSpaceOnUse" x1="615.199" y1="243.9072" x2="620.4285" y2="243.9072">
				<stop  offset="0" style="stop-color:#8AB9FD"/>
				<stop  offset="1" style="stop-color:#0056E9"/>
			</linearGradient>
			<path style="opacity:0.1;fill:url(#SVGID_00000111887696670143513860000000963537174060678047_);" d="M620.428,243.907
				c0,1.444-1.171,2.615-2.615,2.615s-2.615-1.171-2.615-2.615c0-1.444,1.171-2.615,2.615-2.615S620.428,242.463,620.428,243.907z"
				/>
			<circle style="fill:#FFFFFF;" cx="508.066" cy="121.555" r="3.632"/>

				<linearGradient id="SVGID_00000094592795065121050650000005735520172771559317_" gradientUnits="userSpaceOnUse" x1="394.8288" y1="417.5814" x2="435.1693" y2="451.7941">
				<stop  offset="0" style="stop-color:#8AB9FD"/>
				<stop  offset="1" style="stop-color:#0056E9"/>
			</linearGradient>
			<path style="opacity:0.1;fill:url(#SVGID_00000094592795065121050650000005735520172771559317_);" d="M419.162,435.286
				c0,1.91-1.548,3.457-3.458,3.457c-1.909,0-3.458-1.548-3.458-3.457c0-1.91,1.548-3.458,3.458-3.458
				C417.614,431.828,419.162,433.376,419.162,435.286z"/>
			<path d="M160.195,341.557c0,2.46-1.995,4.455-4.455,4.455c-2.46,0-4.455-1.995-4.455-4.455c0-2.461,1.995-4.455,4.455-4.455
				C158.2,337.102,160.195,339.096,160.195,341.557z"/>
		</g>
		<g>
			<g>
				<path d="M142.075,307.451l-3.015-0.35c-1.065-0.124-1.828-1.088-1.705-2.153l1.498-12.898c0.124-1.065,1.087-1.829,2.153-1.705
					l3.015,0.35c1.065,0.124,1.828,1.088,1.705,2.153l-1.498,12.898C144.104,306.811,143.14,307.574,142.075,307.451z"/>
				<path d="M163.696,303.526c-0.74,2.19-2.64,2.11-2.64,2.11s1.349,0.943,0.862,2.217c-0.488,1.275-1.781,1.695-2.818,1.575
					l-8.398-0.976c-1.385-0.161-2.731-0.59-3.927-1.307c-0.078-0.047-0.153-0.091-0.227-0.132c-0.496-0.282-0.768-0.838-0.703-1.405
					l1.415-12.179c0.066-0.567,0.27-1.106,0.594-1.576c0.707-1.026,1.941-2.95,2.068-4.045c0.179-1.544-1.429-6.498,0.32-7.337
					c1.712-0.82,3.987,0.979,4.549,3.15c0.561,2.17-0.409,6.213,0.274,7.075l8.135,0.945c0,0,2.323,0.164,1.993,2.475
					c-0.249,1.749-1.564,2.348-1.564,2.348s1.631,0.462,1.226,2.311c-0.453,2.069-2.031,2.448-2.031,2.448
					S164.229,301.949,163.696,303.526z"/>
			</g>
			<g>
				<path d="M437.283,226.06l-3.715,1.273c-1.313,0.45-2.741-0.25-3.191-1.563l-5.445-15.895c-0.45-1.313,0.25-2.741,1.563-3.191
					l3.715-1.273c1.313-0.45,2.741,0.25,3.191,1.563l5.445,15.895C439.296,224.181,438.596,225.61,437.283,226.06z"/>
				<path d="M460.339,209.419c0.358,2.97-1.906,3.936-1.906,3.936s2.101,0.349,2.243,2.108c0.142,1.76-1.134,2.973-2.411,3.41
					l-10.349,3.545c-1.707,0.585-3.517,0.834-5.313,0.664c-0.117-0.011-0.23-0.02-0.339-0.028c-0.736-0.053-1.365-0.55-1.604-1.248
					l-5.141-15.008c-0.239-0.699-0.301-1.442-0.185-2.171c0.253-1.593,0.621-4.527,0.159-5.877c-0.652-1.903-5.293-6.79-3.719-8.744
					c1.541-1.912,5.202-1.08,7.068,1.141c1.866,2.221,2.988,7.482,4.266,8.108l10.025-3.434c0,0,2.803-1.104,3.708,1.778
					c0.685,2.181-0.517,3.615-0.517,3.615s2.162-0.369,2.72,2.014c0.625,2.668-1.006,3.991-1.006,3.991
					S460.081,207.28,460.339,209.419z"/>
			</g>
			<g>
				<path d="M606.051,350.476l-2.319,0.794c-0.819,0.281-1.711-0.156-1.992-0.975l-3.398-9.921
					c-0.281-0.819,0.156-1.711,0.975-1.992l2.319-0.794c0.819-0.281,1.711,0.156,1.992,0.975l3.398,9.921
					C607.307,349.304,606.87,350.195,606.051,350.476z"/>
				<path d="M620.441,340.089c0.223,1.854-1.189,2.456-1.189,2.456s1.311,0.218,1.4,1.316c0.089,1.099-0.708,1.856-1.505,2.129
					l-6.46,2.213c-1.065,0.365-2.195,0.521-3.316,0.415c-0.073-0.007-0.143-0.013-0.211-0.017c-0.46-0.033-0.852-0.343-1.001-0.779
					l-3.209-9.368c-0.149-0.436-0.188-0.9-0.116-1.355c0.158-0.994,0.388-2.826,0.099-3.668c-0.407-1.188-3.304-4.238-2.321-5.458
					c0.962-1.194,3.247-0.674,4.412,0.712c1.165,1.386,1.865,4.67,2.662,5.061l6.258-2.143c0,0,1.75-0.689,2.314,1.11
					c0.427,1.361-0.323,2.256-0.323,2.256s1.349-0.231,1.698,1.257c0.39,1.665-0.628,2.491-0.628,2.491
					S620.281,338.754,620.441,340.089z"/>
			</g>
		</g>
		<g>

				<linearGradient id="XMLID_00000007419149798943635840000014266885668226683010_" gradientUnits="userSpaceOnUse" x1="493.4291" y1="547.8939" x2="493.4291" y2="583.5846" gradientTransform="matrix(0.9666 0.2564 -0.2564 0.9666 106.8334 -528.1633)">
				<stop  offset="0" style="stop-color:#E4816F"/>
				<stop  offset="1" style="stop-color:#E25E52"/>
			</linearGradient>
			<path id="XMLID_48_" style="fill:url(#XMLID_00000007419149798943635840000014266885668226683010_);" d="M451.881,138.179
				c-1.903-2.837-5.084-3.019-7.4-2.409c-2.262,0.596-3.792,2.029-3.792,2.029s-0.618-2.003-2.288-3.641
				c-1.709-1.678-4.562-3.096-7.621-1.575c-7.239,3.599-1.728,18.3,5.174,23.066C444.311,154.93,456.384,144.893,451.881,138.179z"
				/>

				<linearGradient id="XMLID_00000172401085445771028710000010551012187746844574_" gradientUnits="userSpaceOnUse" x1="475.2389" y1="-390.6433" x2="475.2389" y2="-369.9478" gradientTransform="matrix(0.9022 -0.4313 0.4313 0.9022 0.6353 844.2796)">
				<stop  offset="0" style="stop-color:#E4816F"/>
				<stop  offset="1" style="stop-color:#E25E52"/>
			</linearGradient>

				<path id="XMLID_00000043424700639307718270000000835446596145372074_" style="fill:url(#XMLID_00000172401085445771028710000010551012187746844574_);" d="
				M268.545,288.164c-1.906-0.537-3.379,0.578-4.173,1.717c-0.775,1.113-0.912,2.321-0.912,2.321s-1.026-0.652-2.379-0.748
				c-1.385-0.098-3.178,0.348-3.957,2.169c-1.844,4.31,6.115,8.729,10.954,8.239C271.499,298.405,273.057,289.436,268.545,288.164z"
				/>

				<linearGradient id="XMLID_00000024003737974362219070000010628182865508497537_" gradientUnits="userSpaceOnUse" x1="740.0841" y1="758.8177" x2="740.0841" y2="779.5123" gradientTransform="matrix(0.9619 0.2735 -0.2735 0.9619 88.3629 -809.0804)">
				<stop  offset="0" style="stop-color:#E4816F"/>
				<stop  offset="1" style="stop-color:#E25E52"/>
			</linearGradient>

				<path id="XMLID_00000064344900852377070430000001476831696650550191_" style="fill:url(#XMLID_00000024003737974362219070000010628182865508497537_);" d="
				M597.581,129.26c-1.074-1.664-2.916-1.803-4.265-1.473c-1.318,0.322-2.219,1.137-2.219,1.137s-0.338-1.167-1.289-2.135
				c-0.974-0.99-2.613-1.842-4.402-0.992c-4.234,2.012-1.19,10.592,2.763,13.425C593.021,138.893,600.123,133.198,597.581,129.26z"
				/>
		</g>
	</g>
	<g>

			<line style="fill:none;stroke:#000000;stroke-linecap:round;stroke-miterlimit:10;" x1="53.368" y1="455.506" x2="696.632" y2="455.506"/>

			<line style="fill:none;stroke:#000000;stroke-linecap:round;stroke-miterlimit:10;" x1="556.183" y1="461.91" x2="618.306" y2="461.91"/>

			<line style="fill:none;stroke:#000000;stroke-linecap:round;stroke-miterlimit:10;" x1="437.812" y1="461.91" x2="508.92" y2="461.91"/>

			<line style="fill:none;stroke:#000000;stroke-linecap:round;stroke-miterlimit:10;" x1="155.532" y1="461.91" x2="291.631" y2="461.91"/>
	</g>
</g>
</svg>
